<svg xmlns="http://www.w3.org/2000/svg" viewBox="0 0 411.67 411.67"><defs><style>.cls-1{fill:#b1871c;}.cls-2{fill:#fff;}</style></defs><title>award_02</title><g id="圖層_1" data-name="圖層 1"><circle class="cls-1" cx="205.84" cy="205.84" r="205.84"/></g><g id="圖層_3" data-name="圖層 3"><path class="cls-2" d="M164.72,270.4a28.15,28.15,0,0,1,7.61-15.23c-2.84-1-5.33-1.83-7.79-2.73-2.31-.84-3.13-2.27-2.55-4.29s2.27-2.81,4.53-2.14c3.07.91,6.1,2,9.12,3.07a2.39,2.39,0,0,0,3.07-.73c1.61-1.93,3.34-3.76,5.09-5.57s3.65-1.9,5.15-.41c1.33,1.32,1.29,3.39-.21,5.07-4.57,5.08-9.36,10-13.71,15.23-5.71,6.91-5.46,15.84.23,23.44a18.48,18.48,0,0,0,22.08,6.07c7.9-3.21,12.44-9.45,12.33-16.94,0-3-1.21-4.57-4.15-5.47-2.29-.7-3.86,0-5.54,2.34-1.48,2.08-3.52,2.68-5.15,1.52s-2-3.49-.26-5.58c3.53-4.26,8.13-5.62,13.5-4.58.45.09.89.2,1.61.37v-2.46c0-19,0-38,0-57.05a3.22,3.22,0,0,0-2.39-3.46c-4.22-1.69-7.85-.41-10.95,3.37-5,6.06-9.93,12.17-15.37,17.8-4.53,4.69-9.86,8.53-16.54,9.85a8.66,8.66,0,0,1-1.63.2,3.38,3.38,0,0,1-3.69-3.13,3.28,3.28,0,0,1,3.32-3.72c4.17-.21,7.32-2.44,10.81-5.06a51.87,51.87,0,0,0-4.68-4q-6-4.08-12.27-7.86c-2.53-1.54-3.38-3.11-2.34-5s3-2.33,5.51-1a82.38,82.38,0,0,1,18.93,13.45c2.58-3,5.12-5.81,7.54-8.74a57.15,57.15,0,0,0,4.36-5.85c4.16-6.59,10.36-7.8,17.45-6.83.53.07,1.05.17,1.74.29v-42c-3.41.6-6.86,1.61-10.33,1.68-2.28,0-4.7-1-6.84-2a3.46,3.46,0,0,1-1.7-5.11c1.12-1.82,3-2,5.33-.55,4.47,2.81,8.9,1.76,11.41-2.66a6,6,0,0,0,.07-6c-3.54-7.17-9.51-10.35-17.25-10.57a19,19,0,0,0-18.84,12.91c-2.86,8.43-.11,17.74,6.8,22.76a21.15,21.15,0,0,0,11.45,3.76c2.3.14,3.8,1.42,3.82,3.28a3.35,3.35,0,0,1-4,3.27c-3.24-.38-6.45-1.12-9.66-1.78-4.3-.89-7.85.75-9.59,4.5-1.88,4-1.15,8.26,2,10.65a12.36,12.36,0,0,0,3.55,1.75c2.07.69,2.93,2,2.57,4.12-.31,1.82-2,2.9-4.18,2.37a13.9,13.9,0,0,1-4.46-2c-9.9-6.82-9.48-19.87.8-26.13l1.3-.82a29.75,29.75,0,0,1-7.45-13c-3.5-14,6.35-29.31,20.6-31.93,10-1.84,18.12,1.55,25,8.8,4.82,5.12,6.45,11.33,6.65,18.07.11,3.76,0,7.53,0,11.6,4,0,7.83.07,11.64-.06.72,0,1.5-.79,2.1-1.37,4.53-4.47,9-9,13.54-13.47a2.11,2.11,0,0,0,.49-3c-2.83-5.6-2.13-11,1.77-15.82,3.69-4.58,8.49-7.11,14.46-5.93a15.43,15.43,0,0,1,12.58,12c1.6,6.22-.88,11.3-5.64,15.19s-10,4.77-15.59,2c-1.61-.81-2.42-.53-3.57.64-4.89,5-9.8,10-14.87,14.81a6.92,6.92,0,0,1-4.1,1.69c-4.14.22-8.29.08-12.62.08V188c3.89,0,7.79.07,11.67-.07.71,0,1.47-.82,2.06-1.41,6.13-6.09,12.17-12.28,18.41-18.27a8.39,8.39,0,0,1,4.52-1.89,39,39,0,0,1,7.3,0c1.52.09,2.13-.5,2.72-1.84,2.51-5.72,6.74-9.35,13.11-10.05,7.7-.85,14.64,5.24,16.33,12.16,1.64,6.69-2.43,14.27-9.21,17.33-7.6,3.43-16.67-.39-20.15-8.64-.68-1.62-1.49-2-3.21-2.2-4.86-.55-8.4,1-11.67,4.75-4.72,5.35-10.05,10.16-15.07,15.26a5.48,5.48,0,0,1-4.35,1.83c-4.07-.11-8.15,0-12.43,0V206.7h2.83c6.05,0,12.1-.06,18.15,0,1.86,0,2.83-.41,3.64-2.33,2.42-5.69,6.88-9.24,13.07-9.78s10.89,2.49,14.21,7.57c4.38,6.71,2.42,15.41-4.43,20.35a14.68,14.68,0,0,1-20.39-2.85,13,13,0,0,1-2.44-4c-.62-1.93-1.63-2.47-3.58-2.43-6.36.12-12.73,0-19.1,0-.61,0-1.23.08-2,.13v11.7c3.32,0,6.68.2,10-.05a9.67,9.67,0,0,1,8.61,3.53c5.07,5.58,10.64,10.7,15.89,16.11,1.54,1.59,3.14,2.52,5.37,2.15a3,3,0,0,1,.94,0c3.33.53,5.29-.46,6.94-3.86a14.64,14.64,0,0,1,17.29-7.57A15.76,15.76,0,0,1,293,251.94c-.48,5.86-5.52,11.56-11.75,13.29-5.74,1.6-12.28-1-16.06-6.29a5.79,5.79,0,0,1-1.11-1.79c-.73-3.15-2.8-3.51-5.69-3.49-9.41.07-6.41,1.24-13.2-5.44-5-4.9-9.85-9.93-14.89-14.79a5.89,5.89,0,0,0-3.47-1.48c-3.35-.2-6.71-.07-10.18-.07v22c4.1,0,8.09.09,12.07,0a6.58,6.58,0,0,1,5.36,2.25c4.8,5,9.8,9.76,14.66,14.68a2,2,0,0,0,2.8.46c6.06-3,12.22-1.87,17.06,2.85s6.21,10.91,3.63,16.75c-2.72,6.13-9,10.19-15.36,9.61-9.44-.87-17.74-11.55-12.78-21.68.31-.63.63-1.25.86-1.7-5.2-5.32-10.29-10.54-15.43-15.73a2.67,2.67,0,0,0-1.66-.77c-3.67-.07-7.35,0-11.33,0,0,4.69,0,9.14,0,13.59a24.16,24.16,0,0,1-4.73,15c-6.73,8.94-15.73,12.65-26.66,10.3-10.75-2.3-17.77-9-20.2-19.9a2.4,2.4,0,0,0-2.32-2.25c-14.57-2.91-22.62-11.87-23.71-26.6-.33-4.51.06-9.07-.06-13.61a6.06,6.06,0,0,0-1.2-3.52C133,228,129.25,222,127.63,214.87c-2.17-9.55-.07-18.41,4.69-26.66a93.42,93.42,0,0,1,8-11,5.25,5.25,0,0,0,1.27-4.66c-1-5.81-.8-11.56,1.64-17.06a19.08,19.08,0,0,1,7.63-8.72c1.93-1.18,3.83-.8,4.91.92a3.2,3.2,0,0,1-1.17,4.68c-7.21,4.17-7.89,11-6.46,17.9,1.07,5.15.24,8.57-3.49,12.4a36.13,36.13,0,0,0-10.67,23c-.5,7,1.63,13.14,5.44,18.82A19.29,19.29,0,0,0,143,229c3.1,2.44,3.33,5.33,2.76,9a37.51,37.51,0,0,0,2,20.34C150.61,265.11,157.77,270.34,164.72,270.4Zm91-51.79c5.28,0,8.72-3.46,8.67-8.67s-3.47-8.54-8.82-8.53-8.73,3.49-8.68,8.67S250.32,218.62,255.67,218.61Zm22.13-40.14a8.74,8.74,0,1,0-8.79-8.7A8.37,8.37,0,0,0,277.8,178.47Zm.12,63.08c-5.29,0-8.93,3.55-8.9,8.81a8.75,8.75,0,1,0,8.9-8.81Zm-19.74,52.06c5.35,0,8.6-3.28,8.59-8.64s-3.28-8.55-8.68-8.55-8.58,3.25-8.56,8.65S252.74,293.62,258.17,293.61Zm-8.66-158.71c0,5.33,3.13,8.67,8.26,8.72,5.6.05,9-3.13,9-8.5s-3.18-8.67-8.52-8.7S249.54,129.53,249.51,134.89Z" transform="translate(-4.16 -4.16)"/></g></svg>