<svg xmlns="http://www.w3.org/2000/svg" viewBox="0 0 411.67 411.67"><defs><style>.cls-1{fill:#b1871c;}.cls-2{fill:#fff;}</style></defs><title>award_03</title><g id="圖層_1" data-name="圖層 1"><circle class="cls-1" cx="205.84" cy="205.84" r="205.84"/></g><g id="圖層_4" data-name="圖層 4"><path class="cls-2" d="M128.08,189.69c8.75,5.11,17.55,10.13,26.34,15.16a12.44,12.44,0,0,0,13.1,0q13.19-7.54,26.33-15.17a12.67,12.67,0,0,0,6.6-11.72q0-12.77,0-25.55c0-.53,0-1.07,0-2-1.9,1.66-3.52,2.94-5,4.4a3.84,3.84,0,0,0-1,2.39c-.08,6.94-.1,13.88,0,20.82a7,7,0,0,1-3.79,6.65q-12.93,7.42-25.84,14.89a7.08,7.08,0,0,1-7.66,0c-8.49-4.93-17-9.86-25.51-14.7a7.61,7.61,0,0,1-4.18-7.23q.05-14.48,0-29a7.52,7.52,0,0,1,4.09-7.11q12.71-7.24,25.35-14.61a7.6,7.6,0,0,1,8.35.07c6.34,3.74,12.73,7.39,19.14,11a2.48,2.48,0,0,0,2.11.18,46.07,46.07,0,0,0,4.05-3.52c-8.19-4.69-16-9.32-24-13.7a11.3,11.3,0,0,0-11.4.19q-13.88,7.85-27.63,15.92a11.17,11.17,0,0,0-5.8,9.82q-.18,16.08,0,32.16C121.65,183.81,124.07,187.34,128.08,189.69Z" transform="translate(-4.16 -4.16)"/><path class="cls-2" d="M218.35,189.63c8.79,5.16,17.65,10.2,26.5,15.26a11.72,11.72,0,0,0,9.26,1.45,21.27,21.27,0,0,0,4.66-2c8.26-4.7,16.44-9.54,24.71-14.21,5-2.81,7.46-6.9,7.35-12.63-.08-3.85,0-7.69,0-11.54,0-5.29,0-10.57,0-16.37-1.89,1.65-3.48,2.88-4.86,4.32a4.15,4.15,0,0,0-1.12,2.55c-.09,7.13-.11,14.26,0,21.38a7.22,7.22,0,0,1-4,6.91q-12.71,7.24-25.35,14.61a7.43,7.43,0,0,1-8.16,0c-8.31-4.86-16.63-9.7-25-14.4a8,8,0,0,1-4.46-7.66q.09-14.29,0-28.57a7.64,7.64,0,0,1,4.15-7.26q12.72-7.22,25.35-14.6a7.47,7.47,0,0,1,8.18,0q9.35,5.5,18.81,10.83a2.26,2.26,0,0,0,1.92.19c1.41-1,2.65-2.27,3.94-3.42-.13-.22-.16-.36-.25-.41-7.58-4.36-15.12-8.79-22.77-13a11.39,11.39,0,0,0-11.56,0q-14,7.87-27.8,16A11.18,11.18,0,0,0,212,147c-.11,10.66-.1,21.32,0,32A12,12,0,0,0,218.35,189.63Z" transform="translate(-4.16 -4.16)"/><path class="cls-2" d="M290.81,243.35c-1.75,1.54-3.05,2.84-4.51,3.94a3.88,3.88,0,0,0-1.55,3.56c.08,7.06,0,14.13,0,21.19a6.76,6.76,0,0,1-3.72,6.31c-8.62,5-17.24,9.9-25.83,14.9a7.18,7.18,0,0,1-7.83,0q-12.72-7.41-25.52-14.69a7.51,7.51,0,0,1-4.09-7.1c0-9.59,0-19.18,0-28.76a7.88,7.88,0,0,1,4.34-7.54q12.66-7.13,25.2-14.49a7.26,7.26,0,0,1,8,0c6.29,3.7,12.63,7.31,19,10.9a2.25,2.25,0,0,0,1.93.15c1.41-1,2.67-2.27,4.14-3.57-8.06-4.59-15.86-9.19-23.82-13.49a11.18,11.18,0,0,0-11.08.28q-13.91,7.8-27.64,15.92A11.44,11.44,0,0,0,212,241q-.12,15.8,0,31.6a12,12,0,0,0,6.45,10.82c8.81,5.13,17.63,10.24,26.5,15.26a12.36,12.36,0,0,0,12.79,0q13.39-7.58,26.66-15.35a12.44,12.44,0,0,0,6.43-11.42q0-11.92,0-23.84Z" transform="translate(-4.16 -4.16)"/><path class="cls-2" d="M200.32,244.24c-1.58,1.39-2.86,2.71-4.33,3.76a4,4,0,0,0-1.61,3.72c.07,6.69,0,13.38.06,20.06a7,7,0,0,1-3.84,6.63q-12.86,7.37-25.68,14.8a7.19,7.19,0,0,1-7.83,0q-12.81-7.45-25.68-14.8a7.37,7.37,0,0,1-4-7q0-14.48,0-29a7.63,7.63,0,0,1,4.13-7.27q12.81-7.26,25.53-14.69a7.16,7.16,0,0,1,7.83,0c5.37,3.16,10.79,6.22,16.19,9.33,5,2.86,5,2.87,9-1.24a1.2,1.2,0,0,0,.12-.23,6.09,6.09,0,0,0-.71-.55c-7.41-4.28-14.8-8.6-22.26-12.79a12.59,12.59,0,0,0-13,.14c-2.26,1.25-4.47,2.58-6.71,3.87q-9.65,5.56-19.31,11.11c-4.18,2.41-6.68,6-6.72,10.86q-.12,16,0,32a11.54,11.54,0,0,0,6.18,10.19q13.45,7.86,27,15.53a11.93,11.93,0,0,0,12.27,0q13.65-7.69,27.16-15.64A12.25,12.25,0,0,0,200.45,272q0-13,0-25.93C200.45,245.53,200.37,245,200.32,244.24Z" transform="translate(-4.16 -4.16)"/><path class="cls-2" d="M297.95,226.34c-.81-1.08-1.79-2-2.74-3.08l-44.69,39.39L234,246.78l-4,3.79,20.65,20,11.39-10q17.8-15.69,35.61-31.37A1.86,1.86,0,0,0,297.95,226.34Z" transform="translate(-4.16 -4.16)"/><path class="cls-2" d="M161.24,168.73l-16.55-15.89-4,4.17,20.41,19.83L209.71,134l-4-4.47Z" transform="translate(-4.16 -4.16)"/><path class="cls-2" d="M161,262.63l-16.39-16-4.15,4.17,20.59,19.79,48.62-42.86-4-4.48Z" transform="translate(-4.16 -4.16)"/><path class="cls-2" d="M234.12,152.83,230,156.92l20.53,19.93c.35-.28.89-.69,1.41-1.15,14.42-12.73,28.8-25.5,43.27-38.17,4.25-3.72,4.23-3.5.21-7.75-.07-.08-.21-.09-.34-.15l-44.49,39.21Z" transform="translate(-4.16 -4.16)"/></g></svg>