<svg xmlns="http://www.w3.org/2000/svg" viewBox="0 0 411.67 411.67"><defs><style>.cls-1{fill:#b1871c;}.cls-2{fill:#fff;}</style></defs><title>award_04</title><g id="圖層_1" data-name="圖層 1"><circle class="cls-1" cx="205.84" cy="205.84" r="205.84"/></g><g id="圖層_5" data-name="圖層 5"><path class="cls-2" d="M286.48,131.28a15.46,15.46,0,0,0-.59-4.16c-1.83-6.37-7.31-10.37-14.2-10.38q-19.09,0-38.17,0t-38.17,0A15,15,0,0,0,180,132.1q0,17.7,0,35.41a13.85,13.85,0,0,0,.18,2.75c1.59,7.77,7.25,12.45,15.22,12.52q11.43.1,22.87,0c1.65,0,2.34.55,2.27,2.25-.1,2.45,0,4.92,0,7.38,0,2.95-.13,3-3,2.8a9.79,9.79,0,0,0-10.6,8.12c-.29,1.68-.16,3.44-.44,5.13a50.18,50.18,0,0,1-9.79,22.89c-5.22,6.77-12.14,9.6-20.47,9.67-1.38,0-1.86-.49-1.8-1.84.07-1.59,0-3.2,0-4.79-.05-6.87-4.66-13.19-11.47-14.31-5-.82-10.28-.63-15.42-.47a14.69,14.69,0,0,0-14,14.58q-.05,27.11,0,54.22c0,7.17,5.36,13.6,12.46,14.45a117.09,117.09,0,0,0,13.6.39A15,15,0,0,0,174,292.73c1.36-4.14,1.36-4.14,5.77-3.8.31,0,.61.07.91.11,8.44.91,16.29,3.86,24,7.15a68.11,68.11,0,0,0,27.36,5.51c4,0,7.55-1.24,10-4.48s3.5-6.67,1.77-10.65c-.47-1.07-.15-2,1.3-2.52,6.19-2.22,8.9-7.79,7-14.12-.4-1.35-.23-2.34,1.37-2.83,5.29-1.64,9.15-8.15,7-14.07-.75-2.1-.48-2.51,1.51-3.31,4.63-1.85,7.88-6.88,7.38-11.43a12,12,0,0,0-11.61-10.54c-3.2,0-6.4-.12-9.59,0-1.9.08-2.4-.62-2.39-2.44.06-13.22,0-26.43,0-39.65,0-2.82,0-2.85,2.88-2.86,7.44,0,14.88,0,22.31,0,9.05-.11,15.34-6.51,15.35-15.53Q286.52,149.26,286.48,131.28ZM169.28,261.38q0,13.73,0,27.47a8.65,8.65,0,0,1-8.91,8.95q-6.27,0-12.53,0A8.63,8.63,0,0,1,139,289q0-27.65,0-55.3a8.37,8.37,0,0,1,8.36-8.67q6.82-.15,13.64,0a8.34,8.34,0,0,1,8.3,8.53C169.3,242.83,169.28,252.11,169.28,261.38Zm87.21-27.06a2.32,2.32,0,0,0,1.08-.14,4.77,4.77,0,0,1,7.25,4.13c.14,4.64-1.91,6.75-6.6,6.76h-16c-.55,0-1.11,0-1.66,0-1.83.08-3.34,1.31-3.38,2.74s1.27,2.66,3.32,2.68c3.38,0,6.76,0,10.14,0a5.94,5.94,0,0,1,5.54,8.73,5.3,5.3,0,0,1-5.21,3.11c-5.28,0-10.57,0-15.85,0a3.74,3.74,0,0,0-2.12.32,3.86,3.86,0,0,0-1.6,2.35c0,.8.86,1.75,1.59,2.34a3.7,3.7,0,0,0,2.11.41c2.4,0,4.79,0,7.19,0,3.55,0,5.63,2.18,5.64,5.8,0,3.81-2,6-5.59,6-4.55.05-9.09,0-13.64.05a2.61,2.61,0,0,0-2.91,2.46c-.17,1.64.86,2.46,2.33,2.8a7.93,7.93,0,0,0,1.63.18c1.35,0,2.7,0,4.06,0a5.41,5.41,0,0,1,5.57,5.37c.12,3.83-1.78,6.29-5.26,6.41-9.4.33-18.6-.77-27.35-4.46-8.08-3.41-16.33-6.27-25.07-7.48a40.06,40.06,0,0,0-4.57-.49c-1.67,0-2.4-.58-2.36-2.4.11-5.41,0-10.81,0-16.22s.05-10.69,0-16c0-1.6.57-2.13,2.11-2.23,12.91-.83,22.29-7.12,28.2-18.57,3.88-7.51,6.67-15.37,7.05-23.93.11-2.46.93-3.41,2.87-3.51,2.51-.13,4.47,1.19,4.73,3.38.35,3,.57,6,.85,9,.37,4,.67,8.07,1.15,12.09.51,4.28,4.81,8.12,9.35,8.18C239.53,234.39,248,234.32,256.49,234.32Zm-15.28-29c0,6.82,0,13.64,0,20.47,0,1.56-.54,2-2,2-2.58-.09-5.16,0-7.74,0s-3.72-1-4-3.33c-.58-4.73-1.27-9.48-1.4-14.24-.22-8.29-.06-16.59,0-24.89,0-2.4,0-2.43,2.49-2.44,3.5,0,7,.06,10.51,0,1.66,0,2.26.48,2.24,2.21C241.16,191.77,241.21,198.53,241.21,205.29Zm31-27.91c-13-.2-25.94-.06-38.91-.06-12.79,0-25.58-.18-38.36.08a9.29,9.29,0,0,1-9.63-9.61c.29-12.23.09-24.47.1-36.7a8.51,8.51,0,0,1,8.77-8.87q39.19,0,78.38,0a8.61,8.61,0,0,1,8.82,8.85c0,12.36-.13,24.72.08,37.07A9.2,9.2,0,0,1,272.24,177.38Z" transform="translate(-4.16 -4.16)"/><path class="cls-2" d="M250,164.38a7.53,7.53,0,0,0-1.29-.05q-15.22,0-30.43,0a4.27,4.27,0,0,0-2.3.43c-.72.5-1.59,1.42-1.59,2.16a4,4,0,0,0,1.45,2.47,3.47,3.47,0,0,0,2.1.39c5.23,0,10.45,0,15.68,0h0c5.35,0,10.7,0,16,0,1.85,0,3.08-1,3.23-2.36S251.8,164.69,250,164.38Z" transform="translate(-4.16 -4.16)"/><path class="cls-2" d="M217.74,152.43c5.29,0,10.57,0,15.86,0h0c5.41,0,10.82,0,16.23,0,1.63,0,2.84-.74,3-2.33s-.86-2.48-2.35-2.8a9.57,9.57,0,0,0-2-.28q-14.85,0-29.69,0a9.48,9.48,0,0,0-1.47.05c-2,.32-3.08,1.35-3,2.85S215.66,152.42,217.74,152.43Z" transform="translate(-4.16 -4.16)"/><path class="cls-2" d="M217.21,135.1h32.62c1.63,0,2.85-.73,3-2.34s-1-2.53-2.54-2.84a6.68,6.68,0,0,0-1.27-.19c-10.32,0-20.64,0-31,0a4,4,0,0,0-2.56.72,3.59,3.59,0,0,0-1,2.66A2.47,2.47,0,0,0,217.21,135.1Z" transform="translate(-4.16 -4.16)"/></g></svg>