<svg xmlns="http://www.w3.org/2000/svg" viewBox="0 0 411.67 411.67"><defs><style>.cls-1{fill:#b1871c;}.cls-2{fill:#fff;}</style></defs><title>award_05</title><g id="圖層_1" data-name="圖層 1"><circle class="cls-1" cx="205.84" cy="205.84" r="205.84"/></g><g id="圖層_6" data-name="圖層 6"><path class="cls-2" d="M290.55,175.43c-4.87-21.59-17.42-37.6-36.35-48.57-18.08-10.48-37.73-13.3-58.26-10.33-19.7,2.85-36.59,11.28-49.83,26.3-14.95,16.95-20.88,36.65-16.83,59,3.58,19.84,12.56,37.06,25.86,52.12a5.16,5.16,0,0,1,1.2,3.1c.09,9.33.05,18.65.05,28,0,6.8.11,6.91,6.92,6.91h8.84c0,3.06,0,5.82,0,8.57s1.18,4,4.07,4H243.8c2.85,0,4-1.2,4-4.1,0-2.75,0-5.5,0-8.51h11.27c3.43,0,4.49-1,4.49-4.41,0-10.18,0-20.36,0-30.54a4.85,4.85,0,0,1,1.11-2.94c11.91-13.42,20.39-28.66,24.66-46.14C292,197.2,293,186.34,290.55,175.43ZM241.43,298.16H178.55v-6h62.88Zm15.7-12.61H162.72v-6h94.41Zm-94.36-12.63v-6.07h94.34v6.07Zm121.5-70.61c-3.69,18.75-12.53,34.85-25.34,48.91a8.35,8.35,0,0,0-1.6,4,25.81,25.81,0,0,0-.07,4.52,5.94,5.94,0,0,1-.09.61H162.68c0-1.64-.08-3.26,0-4.87a5.61,5.61,0,0,0-1.69-4.42,100.71,100.71,0,0,1-23.65-41.62c-4.8-17-4.46-33.66,4.26-49.52A69.61,69.61,0,0,1,183,126c24.67-7.75,48.61-5.81,70.86,8,15.56,9.64,25.92,23.45,30.34,41.43C286.4,184.35,286,193.35,284.27,202.31Z" transform="translate(-4.16 -4.16)"/><path class="cls-2" d="M266.77,180c-2.7-.38-4.34-1.46-4.37-4.29a3,3,0,0,1,.58-1.94c1.32-1.37,2.8-2.58,4.21-3.86a2.92,2.92,0,0,0,.75-3.89q-3.62-6.28-7.37-12.5c-1-1.6-2.45-1.84-4.12-1.32-1.5.46-3,.9-4.47,1.46-1.12.43-2.05.64-2.94-.5s-2.57-2-1.59-4.11a55.22,55.22,0,0,0,2-6c-.54-.75-1-1.85-1.74-2.34-4.23-2.61-8.53-5.1-12.84-7.57a3,3,0,0,0-4.05.85c-1.14,1.27-2.37,2.48-3.38,3.84a2,2,0,0,1-2.82.82c-1.22-.59-3.13-.06-3.29-2.36a35.49,35.49,0,0,0-1-5,2.8,2.8,0,0,0-2.83-2.51q-7.46-.07-14.91,0a2.8,2.8,0,0,0-2.86,2.48c-.39,1.79-.75,3.58-1.17,5.36a2.77,2.77,0,0,1-.7,1.54,4.38,4.38,0,0,1-5.93-.75c-.91-1-1.87-2-2.76-3.08a3.09,3.09,0,0,0-4.05-.93q-6.39,3.44-12.64,7.14a3,3,0,0,0-1.2,3.94c.64,1.71,1.16,3.47,1.67,5.22a2.06,2.06,0,0,1,0,1.43c-1.41,2.42-3.06,3-5.78,2.12-1.06-.34-2.12-.66-3.17-1-2-.73-3.59-.34-4.74,1.53-1.79,2.9-3.73,5.71-5.38,8.68-3.24,5.85-3.3,6,1.82,10.22,2.08,1.7,2.4,3.31,1.4,5.44a3.1,3.1,0,0,1-1.67,1.52c-1.74.53-3.57.8-5.35,1.21a2.73,2.73,0,0,0-2.37,2.74q-.07,7.56,0,15.11a2.72,2.72,0,0,0,2.41,2.71c1.79.4,3.57.82,5.37,1.14a2.15,2.15,0,0,1,1.88,1.6c.91,2.36.86,4.2-1.58,5.58a14.24,14.24,0,0,0-2.21,2c-1.78,1.59-2.13,2.74-1.08,4.84,1.55,3.1,3.1,6.22,4.9,9.18,3.11,5.11,3.3,5.24,8.9,3.15,2.49-.93,4.33-.91,5.82,1.34a2.87,2.87,0,0,1,.5,2,56.17,56.17,0,0,1-1.69,5.43,3,3,0,0,0,1.29,3.92q6.38,3.85,12.86,7.54a3,3,0,0,0,4.05-.83c1.14-1.27,2.32-2.51,3.4-3.83.72-.89,1.4-1.54,2.61-.88s3.28,0,3.48,2.39c.14,1.68.75,3.31,1.06,5a3.14,3.14,0,0,0,3.36,2.9c4.58,0,9.16.08,13.74,0,2.46,0,3.33-.93,3.82-3.36.33-1.6.67-3.2,1-4.81.38-2.1,2.29-1.58,3.57-2a2.52,2.52,0,0,1,2.11.52c1.39,1.3,2.59,2.79,3.86,4.2a2.84,2.84,0,0,0,3.71.84q6.47-3.69,12.82-7.59a2.9,2.9,0,0,0,1.1-3.81c-.57-1.53-.93-3.14-1.55-4.64-.52-1.28-.14-2,.73-3.06,1.34-1.58,2.65-2,4.54-1.08a30.2,30.2,0,0,0,4.08,1.39,3,3,0,0,0,3.77-1.3q3.84-6.39,7.56-12.86c1-1.66.53-3.14-.91-4.37-1.24-1.07-2.39-2.27-3.7-3.25a2,2,0,0,1-.83-2.82c.59-1.22.06-3.12,2.36-3.29a40.88,40.88,0,0,0,5.18-1.09,3,3,0,0,0,2.67-2.95c.19-3.73.65-7.5.31-11.2C272.46,181.92,273.7,181,266.77,180Zm-1.7,16.13c-1.55.26-3.09.57-4.62.88a3.7,3.7,0,0,0-3.25,3.17,57.23,57.23,0,0,1-1.76,6.42,3.78,3.78,0,0,0,1.18,4.57c1.56,1.29,3,2.71,4.68,4.2l-4.7,8.07c-2.12-.7-4.11-1.33-6.06-2a3.48,3.48,0,0,0-4.06,1c-1.71,1.82-3.5,3.56-5.29,5.3a3.3,3.3,0,0,0-.93,3.9c.73,1.95,1.3,4,2,6.12l-8,4.7c-1.45-1.62-2.82-3-4.05-4.55a3.84,3.84,0,0,0-4.53-1.36c-2.25.67-4.53,1.24-6.81,1.82a3.56,3.56,0,0,0-2.93,3c-.08.45-.19.89-.29,1.34-1.13,5.07-1.13,5.07-6.39,5-4,0-4,0-4.9-4a11.63,11.63,0,0,1-.26-1.35,4.38,4.38,0,0,0-4.2-4.34,42.7,42.7,0,0,1-5.85-1.6,3.62,3.62,0,0,0-4.22,1.18c-1.29,1.56-2.71,3-4.27,4.75-2.4-1.41-4.84-2.78-7.19-4.29a1.84,1.84,0,0,1-.46-1.62c.42-1.64,1-3.24,1.57-4.85a3.63,3.63,0,0,0-1.13-4.23c-1.74-1.59-3.39-3.29-5-5a3.51,3.51,0,0,0-4.07-1.07c-1.91.67-3.84,1.29-6.1,2.05-1.43-2.5-2.91-5-4.27-7.59-.16-.29.25-1.07.6-1.41,1.17-1.15,2.41-2.23,3.65-3.3a3.55,3.55,0,0,0,1.28-4.17,56.66,56.66,0,0,1-1.64-6.86,3.56,3.56,0,0,0-3.08-3.1c-1.6-.34-3.21-.63-4.82-.92a1.65,1.65,0,0,1-1.6-1.84c0-2.23-.08-4.47.07-6.69a2.19,2.19,0,0,1,1.33-1.49,44.89,44.89,0,0,1,4.8-1,3.75,3.75,0,0,0,3.27-3.18,53.55,53.55,0,0,1,1.66-6.25,4.07,4.07,0,0,0-1.41-5c-1.48-1.19-2.84-2.51-4.39-3.9l4.7-8.06c2.22.72,4.27,1.35,6.3,2.06a3.3,3.3,0,0,0,3.73-1q2.69-2.74,5.43-5.43a3.28,3.28,0,0,0,.93-3.74c-.68-1.91-1.3-3.83-2.06-6.1l8.07-4.7c1.51,1.66,2.94,3.19,4.31,4.78a3.53,3.53,0,0,0,4.2,1.17,66.71,66.71,0,0,1,6.78-1.92,3.69,3.69,0,0,0,3.07-3.14,21.35,21.35,0,0,0,.76-3.84c.06-2.17,1.24-2.62,3.07-2.52,2.16.12,4.83-.56,6.32.48,1.29.9,1.3,3.7,1.78,5.69a3.89,3.89,0,0,0,3.31,3.37,67.54,67.54,0,0,1,6.61,1.83,3.63,3.63,0,0,0,4.22-1.2c1.34-1.6,2.79-3.1,4.3-4.77,2.38,1.41,4.73,2.72,7,4.19a2.12,2.12,0,0,1,.58,1.83,44.28,44.28,0,0,1-1.45,4.47,3.74,3.74,0,0,0,1.16,4.41,58.27,58.27,0,0,1,4.73,4.73,3.83,3.83,0,0,0,4.58,1.17c1.85-.65,3.71-1.23,5.83-1.92,1.4,2.46,2.83,4.87,4.13,7.35a1.83,1.83,0,0,1-.46,1.58,41.58,41.58,0,0,1-3.65,3.3,3.85,3.85,0,0,0-1.3,4.55c.66,2.19,1.26,4.4,1.72,6.64a3.55,3.55,0,0,0,2.94,3,22,22,0,0,0,4,.81c1.93.06,2.43,1.07,2.42,2.73,0,1.9,0,3.81.06,5.71A1.65,1.65,0,0,1,265.07,196.15Z" transform="translate(-4.16 -4.16)"/><path class="cls-2" d="M225.64,158.18a39.34,39.34,0,0,0-14.27,4.66,2.62,2.62,0,0,1-2.85,0,43.78,43.78,0,0,0-5.91-2.63c-4.6-1.62-9.3-2.75-14.25-1.8-8.15,1.57-12.15,8.55-11.33,16.75a38.23,38.23,0,0,0,4.67,14.47,2.75,2.75,0,0,1,0,3A38,38,0,0,0,177,207.1c-1.15,12.06,7.5,17.81,16.49,17a39.66,39.66,0,0,0,15.05-4.76,2.59,2.59,0,0,1,2.85,0c5.1,2.8,10.44,4.86,17.23,4.87,8.84.1,15.11-6.79,14.23-16.44a41.81,41.81,0,0,0-4.58-15.12,2.74,2.74,0,0,1,0-3,34.68,34.68,0,0,0,4.7-14C244.15,164.1,236.72,156.93,225.64,158.18Zm-42.09,12a7.1,7.1,0,0,1,6.57-5.83,25,25,0,0,1,13,2.83L186,184.3C184.56,179.95,182.31,175.38,183.54,170.16Zm5,47.3a7.27,7.27,0,0,1-5.35-6.58c-.41-4.71.79-9.05,3.17-13.53a77.23,77.23,0,0,0,17.24,17.32C200.2,217.11,192.34,218.53,188.54,217.45Zm22.61-6.89a1.79,1.79,0,0,1-2.42-.06,70,70,0,0,1-18.13-18.09,2,2,0,0,1,.06-2.75,70.94,70.94,0,0,1,18-18,1.91,1.91,0,0,1,2.58-.08,70.78,70.78,0,0,1,18.21,18.29c.25.37.47.77.71,1.17-.24.4-.43.74-.65,1.06A70.74,70.74,0,0,1,211.15,210.57Zm25.62-.65c-.19,4.59-3,7.61-7.6,7.92s-8.61-1-12.68-3c3.12-2.76,6.27-5.3,9.11-8.14s5.33-5.94,8.14-9.11C235.54,201.6,236.95,205.55,236.77,209.92Zm-3-25.59-16.93-17.18c4.23-1.73,8.84-3.49,14-2.44,3.46.71,5.59,3.34,5.89,7C237.13,176.37,235.57,180.56,233.82,184.33Z" transform="translate(-4.16 -4.16)"/><path class="cls-2" d="M210.06,186.35a4.72,4.72,0,1,0,4.64,4.9A4.91,4.91,0,0,0,210.06,186.35Zm1.38,4.84a2.28,2.28,0,0,1-1.66,1.34c-.39,0-1.28-1-1.27-1.49s.77-1.2,1.6-2.33C210.81,189.93,211.56,190.66,211.44,191.19Z" transform="translate(-4.16 -4.16)"/></g></svg>