<svg xmlns="http://www.w3.org/2000/svg" viewBox="0 0 411.67 411.67"><defs><style>.cls-1{fill:#b1871c;}.cls-2{fill:#fff;}</style></defs><title>award_06</title><g id="圖層_1" data-name="圖層 1"><circle class="cls-1" cx="205.84" cy="205.84" r="205.84"/></g><g id="圖層_7" data-name="圖層 7"><path class="cls-2" d="M225.2,214.89a14.13,14.13,0,0,0,1-7,10.07,10.07,0,0,0-6.63-8.33c-5-1.53-9.63.56-12.51,5.59-.36.62-.69,1.29-1,2-.74,1.48-1.89,4.66-4.14,3.59-1.52-.72-2-3-2.14-4.56a20.69,20.69,0,0,1,1.56-8.5c.25-.66.54-1.35.85-2.07a21.31,21.31,0,0,0,8.06,1.48c14.82,0,19.63-12.55,20.69-18h-7.27c-.21,1-2.55,11.73-13.42,11.73a13.45,13.45,0,0,1-5.3-1,51,51,0,0,1,7.74-10.72h-8.14a36.41,36.41,0,0,0-5,6.29,17.75,17.75,0,0,1-2.75-6.29h-7.27a24.76,24.76,0,0,0,6.78,12.76c-.5,1.11-1,2.24-1.42,3.38A35.58,35.58,0,0,0,192.47,207c0,4.47,1.85,9.73,6.52,11.24,7.56,2.44,11.53-4.63,13.21-8,.31-.61.59-1.19.85-1.64,1.87-3.26,3.87-2.64,4.53-2.44a3.43,3.43,0,0,1,1.83,2.59,10.57,10.57,0,0,1-.68,5.91,18.18,18.18,0,0,1-5.51,6.71H183.05v7.2h40.43L217.17,238a22.44,22.44,0,0,0-11.35-1.64,15.91,15.91,0,0,0-13.42,11.52,14.3,14.3,0,0,0-.47,4.39c.28,6.33,4.93,11,11,11a11,11,0,0,0,8.71-4.28c.39-.43,1.17-1.53,7.5-11,1.54,1.43,1.91,5.24,1.74,6.95a25,25,0,0,1-11.25,18.44H220a26.82,26.82,0,0,0,7.24-15c.75-5.37.49-11.16-4-16.5l9.95-14.9,3.74-5.6H221.2A22.6,22.6,0,0,0,225.2,214.89Zm-18.34,38.5a4.37,4.37,0,0,1-8-2.39c-.25-4.9,4.92-7.17,7.81-7.51a15.2,15.2,0,0,1,6.41.64Z" transform="translate(-4.16 -4.16)"/><path class="cls-2" d="M296.39,130.4c1.82-4.53,3.62-9.07,5.46-13.67a6.66,6.66,0,0,0-.85-.14q-30,0-60,0c-1.3,0-1.7.61-2.1,1.61q-4.83,12.2-9.72,24.37c-1.17,2.92-2.18,3.51-5.23,2.92a72.32,72.32,0,0,0-27.84,0c-3,.59-4.07,0-5.23-2.93-3.19-8-6.42-16-9.53-24a2.63,2.63,0,0,0-2.92-2c-19.36.06-38.72,0-58.09,0h-2.18c.34.89.53,1.42.74,1.94q11.61,29,23.24,58a7.42,7.42,0,0,1-.49,7.06c-9.39,16.41-13.45,33.89-10.13,52.77,3.27,18.52,11.44,34.49,25.76,46.76,20.26,17.36,43.65,24.22,70,18.21,38.1-8.69,61.7-40.83,62.42-77.29.29-14.53-3.93-28.13-11.39-40.63a6.94,6.94,0,0,1-.47-6.68Q287.14,153.58,296.39,130.4ZM137.09,144c-2-4.55-4.12-9.07-6-13.68a6.14,6.14,0,0,1-.19-3.86c.2-.65,1.69-1.25,2.61-1.26,6.5-.11,13-.06,19.51-.06,6.29,0,12.58.07,18.86,0a3.68,3.68,0,0,1,3.84,2.36c2.5,5.58,5.16,11.11,7.39,16.8,1.27,3.25.41,4.65-2.36,5.75a81.71,81.71,0,0,0-27.52,18.07c-2.26,2.23-4.65,1.75-6-1.27Q142.12,155.44,137.09,144ZM281.2,223.88c.89,38.74-32.33,71.21-71.07,71.29s-72.24-32.66-71.45-72.57a71.65,71.65,0,0,1,70.58-70.14C248.72,151.78,282.21,185,281.2,223.88ZM273,166.64c-1.17,2.86-4.11,3.72-6.5,1.26a76,76,0,0,0-26.95-17.75c-2.94-1.15-3.89-2.77-2.46-6.23,2.21-5.39,4.7-10.68,7-16a4,4,0,0,1,4.22-2.79c6.28.15,12.57.05,18.86.05h18.65c3.48,0,4.64,1.84,3.17,5.18-3.09,7-6.22,14-9.34,21.07C277.42,156.47,275.07,161.51,273,166.64Z" transform="translate(-4.16 -4.16)"/></g></svg>