<svg xmlns="http://www.w3.org/2000/svg" viewBox="0 0 411.67 411.67"><defs><style>.cls-1{fill:#b1871c;}.cls-2{fill:#fff;}</style></defs><title>award_01</title><g id="圖層_1" data-name="圖層 1"><circle class="cls-1" cx="205.84" cy="205.84" r="205.84"/></g><g id="圖層_2" data-name="圖層 2"><path class="cls-2" d="M157.34,193.48,145,129.76l38.65-7.49,13.74,70.93h4.53c0-.57,0-1.19,0-1.81,0-7.47-.21-15,.06-22.41a74.41,74.41,0,0,0-2.37-20.91,6.17,6.17,0,0,1,1.51-6.32C206.17,136,211,130.07,216,124l6.93,8.27c3,3.61,6,7.25,9.05,10.82a3.24,3.24,0,0,1,.75,3.2,87.71,87.71,0,0,0-2.7,24.22c.29,6.87.06,13.76.06,20.65v1.9c1.54.58,2.15,0,2.58-1.37q7.69-25.4,15.51-50.76a3.64,3.64,0,0,1,1.16-1.85c5.83-4.06,11.72-8,17.75-12.16,1.12,2.79,2.2,5.48,3.27,8.17,1.45,3.65,3,7.28,4.29,11a6,6,0,0,1,.19,3.49q-6.5,21.63-13.21,43.19a2.62,2.62,0,0,0,1,3.39c6.49,5.21,5.14,14.89-2.61,18.5a2.49,2.49,0,0,0-1.66,2.76q0,34.06,0,68.13c0,7.14-5,12.17-12.22,12.18H169c-7.27,0-12.25-5-12.25-12.31q0-34.06,0-68.13a2.43,2.43,0,0,0-1.65-2.6c-4.24-2.06-6.87-5.51-6.77-10.28s3-8.26,7.37-10.29C156.18,193.9,156.68,193.73,157.34,193.48Zm5,22.41c0,.77,0,1.35,0,1.93q0,34.06,0,68.12c0,4.41,1.8,6.23,6.17,6.23h78.18c4.28,0,6.12-1.84,6.12-6.11q0-34.15,0-68.3c0-.62,0-1.24,0-1.88Zm.12-26.36c-.11,3.59.06,3.78,3.31,3.78h26.12l-12.52-64.62-27.85,5.4,1.07,5.66,8.31-1.53,1,5.31-8.26,1.69,1.1,5.64,13.85-2.63,1,5.34-13.76,2.72,1.06,5.65,8.3-1.53,1.06,5.26-3.13.71c-1.64.38-4,.26-4.7,1.28s.28,3.2.53,4.87c0,.1.13.19.33.48l13.62-2.59,1,5.34L160,178.47l1.09,5.69c1.35-.27,2.49-.51,3.63-.72,4.87-.89,4.87-.89,5.6,4.1a2.21,2.21,0,0,1-.07.39Zm45.11,20.73h47.83c4.61,0,7.16-3.76,5.5-8.09-.87-2.28-2.7-3.29-6-3.29h-95c-.41,0-.83,0-1.23,0a5.12,5.12,0,0,0-4.8,4.79c-.37,4.2,1.8,6.57,6,6.57Zm.08-36.74v19.69h16.78V173.52Zm17.44-17c.65-3.13,1.35-6.09,1.83-9.09a3.71,3.71,0,0,0-.68-2.53c-1.7-2.25-3.56-4.38-5.37-6.54-1.57-1.87-3.14-3.74-4.84-5.76-3.66,4.41-7.16,8.59-10.61,12.82a2,2,0,0,0-.32,1.47c.59,3.21,1.25,6.4,1.89,9.6h6.32v-8.27h5.62v8.3Zm12.83,36.78a33,33,0,0,1,4,0c1.67.22,2.33-.46,2.79-2,3.32-11.11,6.74-22.2,10.12-33.29,1.16-3.8,2.29-7.61,3.48-11.55l-5.53-1.71Zm17.92-.07,13.28-43.49-5.58-1.66-13.78,45.15Zm-31.33-31H207.6v5.49h16.85Zm43.38-18.64-3.33-8.29-7.33,5Z" transform="translate(-4.16 -4.16)"/></g></svg>