<svg id="Icons" xmlns="http://www.w3.org/2000/svg" viewBox="0 0 76.21 76.21"><defs><style>.cls-1{fill:#b88b01;}.cls-2{fill:#fff;}</style></defs><title>calendar</title><circle class="cls-1" cx="38.11" cy="38.11" r="38.11"/><path class="cls-2" d="M57.15,23.68H52.24V19.55H48.15v4.13H31.79V19.55H27.7v4.13H22.85a3.27,3.27,0,0,0-3.27,3.27V57.18a3.27,3.27,0,0,0,3.27,3.27H57.15a3.27,3.27,0,0,0,3.27-3.27V26.95A3.27,3.27,0,0,0,57.15,23.68Zm-.82,32.69H23.6V35.91H56.33Zm0-24.54H23.6V27.73H56.33Z" transform="translate(-1.89 -1.89)"/><rect class="cls-2" x="36.44" y="38.11" width="4.09" height="4.09"/><rect class="cls-2" x="44.62" y="38.11" width="4.09" height="4.09"/><rect class="cls-2" x="36.44" y="46.29" width="4.09" height="4.09"/><rect class="cls-2" x="28.26" y="46.29" width="4.09" height="4.09"/></svg>