<?xml version="1.0" encoding="utf-8"?>
<!-- Generator: Adobe Illustrator 20.1.0, SVG Export Plug-In . SVG Version: 6.00 Build 0)  -->
<svg version="1.1" id="圖層_1" xmlns="http://www.w3.org/2000/svg" xmlns:xlink="http://www.w3.org/1999/xlink" x="0px" y="0px"
	 viewBox="0 0 23.2 23.2" style="enable-background:new 0 0 23.2 23.2;" xml:space="preserve">
<style type="text/css">
	.st0{fill:#A00000;}
</style>
<title>cross</title>
<path class="st0" d="M20.9,17.1l-5.5-5.5l5.5-5.5c0.5-0.6,0.6-1.3,0.6-2c-0.1-0.7-0.5-1.4-1-1.8c-1-0.8-2.4-0.8-3.4,0l-5.5,5.4l-5-5
	c-0.5-0.6-1.1-0.9-1.8-1C4,1.6,3.3,1.8,2.7,2.3C1.5,3.2,1.3,4.9,2.3,6.1c0.1,0.2,0.3,0.3,0.5,0.5l5,5l-5,5c-0.6,0.5-0.9,1.1-1,1.8
	c-0.1,0.7,0.1,1.4,0.6,2c0.5,0.6,1.1,0.9,1.8,1c0.1,0,0.2,0,0.3,0c0.6,0,1.2-0.2,1.7-0.6c0.2-0.1,0.3-0.3,0.5-0.5l5-5l5.5,5.5
	c1.2,0.9,2.9,0.7,3.9-0.5C21.7,19.4,21.7,18.1,20.9,17.1z"/>
</svg>
