<svg id="Icons" xmlns="http://www.w3.org/2000/svg" viewBox="0 0 76.21 76.21"><defs><style>.cls-1{fill:#b88b01;}.cls-2{fill:#fff;}</style></defs><title>location</title><circle class="cls-1" cx="38.11" cy="38.11" r="38.11"/><path class="cls-2" d="M40,17.24A18.81,18.81,0,0,0,21.33,36a20.09,20.09,0,0,0,5.31,13.34L40,62.76,53.32,49.43A20.07,20.07,0,0,0,58.67,36,18.81,18.81,0,0,0,40,17.24ZM50.33,46.55,40,56.89,29.63,46.51A16,16,0,0,1,25.48,36a14.53,14.53,0,1,1,29,0A15.92,15.92,0,0,1,50.33,46.55Z" transform="translate(-1.89 -1.89)"/><path class="cls-2" d="M40,28.66a7.26,7.26,0,1,0,7.26,7.26A7.26,7.26,0,0,0,40,28.66ZM40,39a3.11,3.11,0,1,1,3.11-3.11A3.12,3.12,0,0,1,40,39Z" transform="translate(-1.89 -1.89)"/></svg>