<?xml version="1.0" encoding="utf-8"?>
<!-- Generator: Adobe Illustrator 20.1.0, SVG Export Plug-In . SVG Version: 6.00 Build 0)  -->
<svg version="1.1" id="圖層_1" xmlns="http://www.w3.org/2000/svg" xmlns:xlink="http://www.w3.org/1999/xlink" x="0px" y="0px"
	 viewBox="0 0 217 62.8" style="enable-background:new 0 0 217 62.8;" xml:space="preserve">
<style type="text/css">
	.st0{fill:#58595B;}
	.st1{fill:#F99D33;}
	.st2{fill:#231F20;}
</style>
<g>
	<path class="st0" d="M137.7,34.8l5.7-22.9c0.5-1.9,0.7-3.6,0.7-5.1c0-4.5-1.9-6.8-5.6-6.8c-3.9,0-7.5,2-10.7,5.9l-13.2,16.2
		l3.2-12.7c0.3-1.3,0.5-2.5,0.5-3.6c0-3.9-1.7-5.8-5.2-5.8c-4.2,0-8,2-11.4,6.1L88.1,22.1l5-20.4H77.2l-3.5,14.4
		c0.5,2.2,0.8,4.5,0.8,6.9c0,7.9-2.4,14.4-7.2,19.4L66.6,45h9c2.2,0,4.1-0.9,5.6-2.7l17.6-21.1l-3.5,13.7c-0.4,1.7-0.7,3.2-0.7,4.6
		c0,4.3,2,6.5,6,6.5c2.7,0,5.9-2.2,9.7-6.8l14.9-18c-1.3,6-2.3,10.6-2.9,13.7c-0.1,0.6-0.2,1.3-0.2,2c0,2.1,0.6,4,1.8,5.7
		c1.2,1.7,2.5,2.5,3.9,2.5h17.9c5.8,0,9.2-3.4,10-10.2H137.7"/>
	<path class="st1" d="M53.7,23.7c0,2.5-2,4.6-4.6,4.6H32.2c-2.5,0-4.6-2-4.6-4.6c0-2.5,2-4.6,4.6-4.6h16.9
		C51.7,19.1,53.7,21.1,53.7,23.7"/>
	<path class="st0" d="M63.5,6.7c-4.3-3.5-9.4-4.3-9.4-4.3c-3.2-0.5-8.5-1-11.8-1h-8.6v0.1h-0.1c-3.3,0-5.9,2.6-5.9,5.8
		c0,3.2,2.7,5.8,5.9,5.8h10.3c2.7,0.1,5.8,0.3,7.9,0.6c0,0,1.3,0.1,3.5,1.8c2.4,1.8,3.5,4.3,3.5,7.9c0,3.6-1,6.2-3.1,7.9
		c-1.9,1.6-2.7,1.7-2.7,1.7c-3.2,0.4-8.6,0.7-11.8,0.7H5.9c-3.3,0-5.9,2.6-5.9,5.8c0,3.2,2.7,5.8,5.9,5.8h37.1
		c3.3,0,8.6-0.4,11.8-0.9c0,0,5.3-0.9,9.4-4.4c4.6-4,6.9-9.6,6.9-16.5C71.2,16.4,68.6,10.8,63.5,6.7"/>
	<path class="st0" d="M194.5,34.8l10.2-33.1h-31c-7.7,0-14.2,2.3-19.5,7c-5.8,5.1-8.7,12.1-8.7,21c0,4.9,1.3,8.9,4,12
		c2.6,3.1,6.1,4.6,10.3,4.6c5.7,0,10.6-2.6,14.5-7.9L169,27.9l-6.2,1.5l3.1-20.2l12,16.6l-5.1,1.2l1.6,11.4c0,4.4,2.9,6.6,8.8,6.6
		h20.5c7.1,0,11.5-3.4,13.3-10.2H194.5"/>
	<g>
		<path class="st2" d="M9,54.4h4.7V55h-2.1v6H11v-6H9V54.4z"/>
		<path class="st2" d="M16.7,58.2c0.1,0,0.2,0,0.4-0.1c0.1,0,0.3-0.1,0.3-0.1s0.1-0.1,0.2-0.2s0-0.2,0-0.3c0-0.3-0.1-0.5-0.3-0.7
			c-0.2-0.2-0.5-0.3-0.9-0.3c-0.2,0-0.4,0-0.5,0c-0.2,0-0.3,0.1-0.4,0.2c-0.1,0.1-0.2,0.2-0.3,0.3c-0.1,0.1-0.1,0.3-0.1,0.5h-0.5
			c0-0.3,0.1-0.5,0.2-0.7c0.1-0.2,0.2-0.4,0.4-0.5c0.2-0.1,0.4-0.2,0.6-0.3c0.2-0.1,0.5-0.1,0.7-0.1c0.2,0,0.5,0,0.7,0.1
			s0.4,0.1,0.5,0.2c0.2,0.1,0.3,0.3,0.4,0.4s0.1,0.4,0.1,0.7v2.5c0,0.2,0,0.3,0.1,0.4c0.1,0.1,0.2,0,0.5,0v0.4c0,0-0.1,0-0.2,0.1
			c-0.1,0-0.2,0-0.2,0c-0.1,0-0.2,0-0.2,0c-0.1,0-0.2,0-0.2-0.1c-0.1,0-0.1-0.1-0.1-0.2c0-0.1-0.1-0.1-0.1-0.2c0-0.1,0-0.2,0-0.2
			c-0.2,0.3-0.5,0.4-0.8,0.6c-0.3,0.1-0.6,0.2-1,0.2c-0.2,0-0.4,0-0.6-0.1c-0.2-0.1-0.4-0.1-0.5-0.3c-0.1-0.1-0.3-0.3-0.3-0.4
			s-0.1-0.4-0.1-0.6c0-0.8,0.5-1.3,1.6-1.4L16.7,58.2z M17.6,58.5c-0.2,0.1-0.5,0.2-0.7,0.2c-0.2,0-0.5,0.1-0.7,0.1
			c-0.4,0-0.7,0.1-1,0.3c-0.2,0.2-0.3,0.4-0.3,0.7c0,0.1,0,0.3,0.1,0.4c0.1,0.1,0.1,0.2,0.2,0.3c0.1,0.1,0.2,0.1,0.3,0.2
			c0.1,0,0.2,0,0.4,0c0.2,0,0.4,0,0.6-0.1c0.2-0.1,0.4-0.1,0.5-0.2c0.2-0.1,0.3-0.3,0.4-0.4c0.1-0.2,0.1-0.4,0.1-0.6V58.5z"/>
		<path class="st2" d="M19.7,55.2v-0.8h0.6v0.8H19.7z M19.7,60.9v-4.7h0.5v4.7H19.7z"/>
		<path class="st2" d="M25.7,60.2l1.2-3.9h0.5l-1.5,4.7h-0.6l-1-3.9h0l-1,3.9h-0.6l-1.4-4.7h0.5l1.2,4l1.1-4h0.6L25.7,60.2z"/>
		<path class="st2" d="M30.5,58.2c0.1,0,0.2,0,0.4-0.1c0.1,0,0.3-0.1,0.3-0.1s0.1-0.1,0.2-0.2s0-0.2,0-0.3c0-0.3-0.1-0.5-0.3-0.7
			c-0.2-0.2-0.5-0.3-0.9-0.3c-0.2,0-0.4,0-0.5,0c-0.2,0-0.3,0.1-0.4,0.2c-0.1,0.1-0.2,0.2-0.3,0.3c-0.1,0.1-0.1,0.3-0.1,0.5h-0.5
			c0-0.3,0.1-0.5,0.2-0.7c0.1-0.2,0.2-0.4,0.4-0.5c0.2-0.1,0.4-0.2,0.6-0.3c0.2-0.1,0.5-0.1,0.7-0.1c0.2,0,0.5,0,0.7,0.1
			s0.4,0.1,0.5,0.2c0.2,0.1,0.3,0.3,0.4,0.4s0.1,0.4,0.1,0.7v2.5c0,0.2,0,0.3,0.1,0.4c0.1,0.1,0.2,0,0.5,0v0.4c0,0-0.1,0-0.2,0.1
			c-0.1,0-0.2,0-0.2,0c-0.1,0-0.2,0-0.2,0c-0.1,0-0.2,0-0.2-0.1c-0.1,0-0.1-0.1-0.1-0.2c0-0.1-0.1-0.1-0.1-0.2c0-0.1,0-0.2,0-0.2
			c-0.2,0.3-0.5,0.4-0.8,0.6c-0.3,0.1-0.6,0.2-1,0.2c-0.2,0-0.4,0-0.6-0.1c-0.2-0.1-0.4-0.1-0.5-0.3c-0.1-0.1-0.3-0.3-0.3-0.4
			s-0.1-0.4-0.1-0.6c0-0.8,0.5-1.3,1.6-1.4L30.5,58.2z M31.4,58.5c-0.2,0.1-0.5,0.2-0.7,0.2c-0.2,0-0.5,0.1-0.7,0.1
			c-0.4,0-0.7,0.1-1,0.3c-0.2,0.2-0.3,0.4-0.3,0.7c0,0.1,0,0.3,0.1,0.4c0.1,0.1,0.1,0.2,0.2,0.3c0.1,0.1,0.2,0.1,0.3,0.2
			c0.1,0,0.2,0,0.4,0c0.2,0,0.4,0,0.6-0.1c0.2-0.1,0.4-0.1,0.5-0.2c0.2-0.1,0.3-0.3,0.4-0.4c0.1-0.2,0.1-0.4,0.1-0.6V58.5z"/>
		<path class="st2" d="M34,60.9h-0.5v-4.7H34v0.6c0.2-0.2,0.4-0.4,0.7-0.6c0.2-0.1,0.5-0.2,0.8-0.2c0.3,0,0.6,0,0.8,0.1
			c0.2,0.1,0.5,0.3,0.6,0.5c0.1,0.2,0.2,0.3,0.2,0.5c0,0.2,0,0.4,0,0.6v3.1h-0.5v-3c0-0.4-0.1-0.7-0.3-0.9s-0.5-0.3-0.9-0.3
			c-0.2,0-0.3,0-0.5,0.1c-0.1,0.1-0.3,0.1-0.4,0.2c-0.1,0.1-0.2,0.2-0.3,0.3s-0.1,0.2-0.2,0.3C34,57.7,34,57.8,34,58
			c0,0.1,0,0.3,0,0.4V60.9z"/>
		<path class="st2" d="M41.2,60.9v-6.5h2.2c0.2,0,0.4,0,0.5,0c0.2,0,0.3,0,0.5,0.1c0.2,0,0.3,0.1,0.5,0.1c0.2,0.1,0.3,0.2,0.5,0.3
			c0.2,0.2,0.4,0.3,0.5,0.6c0.1,0.2,0.2,0.5,0.3,0.7c0.1,0.2,0.1,0.5,0.2,0.8c0,0.3,0,0.5,0,0.7s0,0.4,0,0.7c0,0.2-0.1,0.4-0.1,0.7
			c-0.1,0.2-0.1,0.4-0.2,0.6c-0.1,0.2-0.2,0.4-0.4,0.5c-0.1,0.2-0.3,0.3-0.5,0.4c-0.2,0.1-0.4,0.2-0.6,0.2s-0.4,0.1-0.6,0.1
			c-0.2,0-0.4,0-0.6,0H41.2z M41.8,60.4h1.5c0.3,0,0.5,0,0.8,0c0.2,0,0.5-0.1,0.7-0.2c0.2-0.1,0.4-0.3,0.5-0.4s0.2-0.4,0.3-0.6
			c0.1-0.2,0.1-0.4,0.2-0.7c0-0.2,0-0.5,0-0.7c0-0.2,0-0.5,0-0.7c0-0.2-0.1-0.5-0.2-0.7c-0.1-0.2-0.2-0.4-0.3-0.6
			c-0.1-0.2-0.3-0.3-0.6-0.5c-0.2-0.1-0.4-0.2-0.7-0.2c-0.3,0-0.5,0-0.8,0h-1.5V60.4z"/>
		<path class="st2" d="M47.8,55.2v-0.8h0.6v0.8H47.8z M47.8,60.9v-4.7h0.5v4.7H47.8z"/>
		<path class="st2" d="M53.4,56.3h0.5v4.2c0,0.3,0,0.6-0.1,0.9c-0.1,0.3-0.2,0.5-0.3,0.8c-0.2,0.2-0.4,0.4-0.7,0.5s-0.6,0.2-1.1,0.2
			c-0.3,0-0.6,0-0.9-0.1c-0.2-0.1-0.4-0.2-0.6-0.3c-0.2-0.1-0.3-0.3-0.4-0.4c-0.1-0.2-0.1-0.3-0.1-0.4h0.6c0,0.2,0.1,0.3,0.2,0.4
			c0.1,0.1,0.2,0.2,0.3,0.3c0.1,0.1,0.3,0.1,0.4,0.1c0.1,0,0.3,0,0.5,0c0.4,0,0.7-0.1,0.9-0.2s0.4-0.3,0.5-0.5
			c0.1-0.2,0.2-0.4,0.2-0.7c0-0.3,0-0.5,0-0.8c-0.2,0.3-0.4,0.5-0.7,0.7c-0.3,0.1-0.6,0.2-0.9,0.2c-0.4,0-0.7-0.1-0.9-0.2
			c-0.3-0.1-0.5-0.3-0.6-0.5c-0.2-0.2-0.3-0.5-0.4-0.8c-0.1-0.3-0.1-0.6-0.1-0.9c0-0.3,0-0.7,0.1-1c0.1-0.3,0.2-0.6,0.4-0.8
			c0.2-0.2,0.4-0.4,0.7-0.5s0.6-0.2,1-0.2c0.1,0,0.3,0,0.5,0.1c0.2,0,0.3,0.1,0.5,0.2s0.3,0.2,0.4,0.3c0.1,0.1,0.2,0.3,0.3,0.4h0
			V56.3z M53.4,58.6c0-0.3,0-0.5-0.1-0.8c-0.1-0.2-0.2-0.5-0.3-0.6c-0.1-0.2-0.3-0.3-0.5-0.4c-0.2-0.1-0.4-0.2-0.7-0.2
			c-0.2,0-0.4,0-0.6,0.1s-0.4,0.2-0.5,0.4c-0.1,0.2-0.3,0.3-0.3,0.6s-0.1,0.5-0.1,0.8c0,0.3,0,0.6,0.1,0.8s0.2,0.5,0.3,0.7
			s0.3,0.3,0.5,0.5c0.2,0.1,0.4,0.2,0.7,0.2c0.2,0,0.5-0.1,0.7-0.2s0.4-0.2,0.5-0.4c0.1-0.2,0.2-0.4,0.3-0.6
			C53.3,59.1,53.4,58.9,53.4,58.6z"/>
		<path class="st2" d="M55.4,55.2v-0.8H56v0.8H55.4z M55.5,60.9v-4.7H56v4.7H55.5z"/>
		<path class="st2" d="M59.1,60.9c-0.1,0-0.2,0-0.3,0.1c-0.1,0-0.2,0-0.4,0c-0.3,0-0.5-0.1-0.6-0.2c-0.1-0.1-0.2-0.4-0.2-0.7v-3.4
			H57v-0.5h0.7V55h0.5v1.3h0.9v0.5h-0.9v3.2c0,0.1,0,0.2,0,0.3c0,0.1,0,0.2,0.1,0.2c0,0.1,0.1,0.1,0.1,0.1s0.2,0,0.3,0
			c0.1,0,0.1,0,0.2,0s0.1,0,0.2,0V60.9z"/>
		<path class="st2" d="M62.2,58.2c0.1,0,0.2,0,0.4-0.1c0.1,0,0.3-0.1,0.3-0.1s0.1-0.1,0.2-0.2s0-0.2,0-0.3c0-0.3-0.1-0.5-0.3-0.7
			c-0.2-0.2-0.5-0.3-0.9-0.3c-0.2,0-0.4,0-0.5,0c-0.2,0-0.3,0.1-0.4,0.2c-0.1,0.1-0.2,0.2-0.3,0.3c-0.1,0.1-0.1,0.3-0.1,0.5H60
			c0-0.3,0.1-0.5,0.2-0.7c0.1-0.2,0.2-0.4,0.4-0.5c0.2-0.1,0.4-0.2,0.6-0.3c0.2-0.1,0.5-0.1,0.7-0.1c0.2,0,0.5,0,0.7,0.1
			s0.4,0.1,0.5,0.2c0.2,0.1,0.3,0.3,0.4,0.4s0.1,0.4,0.1,0.7v2.5c0,0.2,0,0.3,0.1,0.4c0.1,0.1,0.2,0,0.5,0v0.4c0,0-0.1,0-0.2,0.1
			c-0.1,0-0.2,0-0.2,0c-0.1,0-0.2,0-0.2,0c-0.1,0-0.2,0-0.2-0.1c-0.1,0-0.1-0.1-0.1-0.2c0-0.1-0.1-0.1-0.1-0.2c0-0.1,0-0.2,0-0.2
			c-0.2,0.3-0.5,0.4-0.8,0.6c-0.3,0.1-0.6,0.2-1,0.2c-0.2,0-0.4,0-0.6-0.1c-0.2-0.1-0.4-0.1-0.5-0.3c-0.1-0.1-0.3-0.3-0.3-0.4
			s-0.1-0.4-0.1-0.6c0-0.8,0.5-1.3,1.6-1.4L62.2,58.2z M63.1,58.5c-0.2,0.1-0.5,0.2-0.7,0.2c-0.2,0-0.5,0.1-0.7,0.1
			c-0.4,0-0.7,0.1-1,0.3c-0.2,0.2-0.3,0.4-0.3,0.7c0,0.1,0,0.3,0.1,0.4c0.1,0.1,0.1,0.2,0.2,0.3c0.1,0.1,0.2,0.1,0.3,0.2
			c0.1,0,0.2,0,0.4,0c0.2,0,0.4,0,0.6-0.1c0.2-0.1,0.4-0.1,0.5-0.2c0.2-0.1,0.3-0.3,0.4-0.4c0.1-0.2,0.1-0.4,0.1-0.6V58.5z"/>
		<path class="st2" d="M65.2,60.9v-6.5h0.5v6.5H65.2z"/>
		<path class="st2" d="M69.9,60.9v-6.5h0.9l2.1,5.7h0l2.1-5.7H76v6.5h-0.6v-5.8h0l-2.1,5.8h-0.6l-2.1-5.8h0v5.8H69.9z"/>
		<path class="st2" d="M77.7,58.7c0,0.3,0,0.5,0.1,0.7c0.1,0.2,0.2,0.4,0.3,0.6c0.1,0.2,0.3,0.3,0.5,0.4c0.2,0.1,0.4,0.1,0.7,0.1
			c0.4,0,0.7-0.1,0.9-0.3c0.3-0.2,0.4-0.4,0.5-0.8h0.6c-0.1,0.2-0.2,0.4-0.3,0.6c-0.1,0.2-0.2,0.4-0.4,0.5s-0.4,0.3-0.6,0.3
			c-0.2,0.1-0.5,0.1-0.8,0.1c-0.4,0-0.7-0.1-1-0.2s-0.5-0.3-0.7-0.5c-0.2-0.2-0.3-0.5-0.4-0.8s-0.1-0.6-0.1-1s0-0.7,0.1-1
			c0.1-0.3,0.2-0.6,0.4-0.8s0.4-0.4,0.7-0.5c0.3-0.1,0.6-0.2,0.9-0.2c0.6,0,1.1,0.2,1.5,0.7c0.4,0.4,0.5,1.1,0.5,1.9H77.7z
			 M80.8,58.3c0-0.2,0-0.4-0.1-0.6s-0.2-0.4-0.3-0.5s-0.3-0.3-0.5-0.4s-0.4-0.1-0.6-0.1c-0.2,0-0.5,0-0.6,0.1
			c-0.2,0.1-0.3,0.2-0.5,0.4c-0.1,0.2-0.2,0.3-0.3,0.5c-0.1,0.2-0.1,0.4-0.2,0.6H80.8z"/>
		<path class="st2" d="M86.1,54.4h0.5v6.5h-0.5v-0.8h0c-0.1,0.2-0.2,0.3-0.3,0.4c-0.1,0.1-0.3,0.2-0.4,0.3c-0.1,0.1-0.3,0.1-0.5,0.2
			c-0.2,0-0.3,0.1-0.5,0.1c-0.4,0-0.7-0.1-1-0.2s-0.5-0.3-0.7-0.5c-0.2-0.2-0.3-0.5-0.4-0.8c-0.1-0.3-0.1-0.6-0.1-1
			c0-0.3,0-0.6,0.1-0.9c0.1-0.3,0.2-0.6,0.4-0.8c0.2-0.2,0.4-0.4,0.6-0.5c0.3-0.1,0.6-0.2,0.9-0.2c0.3,0,0.6,0.1,0.9,0.2
			c0.3,0.1,0.5,0.4,0.7,0.7V54.4z M86.1,58.6c0-0.3,0-0.5-0.1-0.8c-0.1-0.2-0.2-0.4-0.3-0.6c-0.1-0.2-0.3-0.3-0.5-0.4
			s-0.4-0.2-0.7-0.2c-0.3,0-0.5,0.1-0.7,0.2c-0.2,0.1-0.4,0.3-0.5,0.5c-0.1,0.2-0.2,0.4-0.3,0.7c-0.1,0.3-0.1,0.5-0.1,0.8
			c0,0.3,0,0.6,0.1,0.8c0.1,0.2,0.2,0.4,0.3,0.6s0.3,0.3,0.5,0.4s0.4,0.1,0.6,0.1c0.3,0,0.5-0.1,0.7-0.2c0.2-0.1,0.4-0.2,0.5-0.4
			c0.1-0.2,0.2-0.4,0.3-0.6S86.1,58.9,86.1,58.6z"/>
		<path class="st2" d="M88.2,55.2v-0.8h0.6v0.8H88.2z M88.2,60.9v-4.7h0.5v4.7H88.2z"/>
		<path class="st2" d="M92.3,58.2c0.1,0,0.2,0,0.4-0.1c0.1,0,0.3-0.1,0.3-0.1s0.1-0.1,0.2-0.2s0-0.2,0-0.3c0-0.3-0.1-0.5-0.3-0.7
			c-0.2-0.2-0.5-0.3-0.9-0.3c-0.2,0-0.4,0-0.5,0c-0.2,0-0.3,0.1-0.4,0.2c-0.1,0.1-0.2,0.2-0.3,0.3c-0.1,0.1-0.1,0.3-0.1,0.5h-0.5
			c0-0.3,0.1-0.5,0.2-0.7c0.1-0.2,0.2-0.4,0.4-0.5c0.2-0.1,0.4-0.2,0.6-0.3c0.2-0.1,0.5-0.1,0.7-0.1c0.2,0,0.5,0,0.7,0.1
			s0.4,0.1,0.5,0.2c0.2,0.1,0.3,0.3,0.4,0.4s0.1,0.4,0.1,0.7v2.5c0,0.2,0,0.3,0.1,0.4c0.1,0.1,0.2,0,0.5,0v0.4c0,0-0.1,0-0.2,0.1
			c-0.1,0-0.2,0-0.2,0c-0.1,0-0.2,0-0.2,0c-0.1,0-0.2,0-0.2-0.1c-0.1,0-0.1-0.1-0.1-0.2c0-0.1-0.1-0.1-0.1-0.2c0-0.1,0-0.2,0-0.2
			c-0.2,0.3-0.5,0.4-0.8,0.6c-0.3,0.1-0.6,0.2-1,0.2c-0.2,0-0.4,0-0.6-0.1c-0.2-0.1-0.4-0.1-0.5-0.3c-0.1-0.1-0.3-0.3-0.3-0.4
			S90,59.9,90,59.7c0-0.8,0.5-1.3,1.6-1.4L92.3,58.2z M93.2,58.5c-0.2,0.1-0.5,0.2-0.7,0.2c-0.2,0-0.5,0.1-0.7,0.1
			c-0.4,0-0.7,0.1-1,0.3c-0.2,0.2-0.3,0.4-0.3,0.7c0,0.1,0,0.3,0.1,0.4c0.1,0.1,0.1,0.2,0.2,0.3c0.1,0.1,0.2,0.1,0.3,0.2
			c0.1,0,0.2,0,0.4,0c0.2,0,0.4,0,0.6-0.1c0.2-0.1,0.4-0.1,0.5-0.2c0.2-0.1,0.3-0.3,0.4-0.4c0.1-0.2,0.1-0.4,0.1-0.6V58.5z"/>
		<path class="st2" d="M100,58.2c0.1,0,0.2,0,0.4-0.1c0.1,0,0.3-0.1,0.3-0.1s0.1-0.1,0.2-0.2s0-0.2,0-0.3c0-0.3-0.1-0.5-0.3-0.7
			c-0.2-0.2-0.5-0.3-0.9-0.3c-0.2,0-0.4,0-0.5,0c-0.2,0-0.3,0.1-0.4,0.2c-0.1,0.1-0.2,0.2-0.3,0.3c-0.1,0.1-0.1,0.3-0.1,0.5h-0.5
			c0-0.3,0.1-0.5,0.2-0.7c0.1-0.2,0.2-0.4,0.4-0.5c0.2-0.1,0.4-0.2,0.6-0.3c0.2-0.1,0.5-0.1,0.7-0.1c0.2,0,0.5,0,0.7,0.1
			s0.4,0.1,0.5,0.2c0.2,0.1,0.3,0.3,0.4,0.4s0.1,0.4,0.1,0.7v2.5c0,0.2,0,0.3,0.1,0.4c0.1,0.1,0.2,0,0.5,0v0.4c0,0-0.1,0-0.2,0.1
			c-0.1,0-0.2,0-0.2,0c-0.1,0-0.2,0-0.2,0c-0.1,0-0.2,0-0.2-0.1c-0.1,0-0.1-0.1-0.1-0.2c0-0.1-0.1-0.1-0.1-0.2c0-0.1,0-0.2,0-0.2
			c-0.2,0.3-0.5,0.4-0.8,0.6c-0.3,0.1-0.6,0.2-1,0.2c-0.2,0-0.4,0-0.6-0.1c-0.2-0.1-0.4-0.1-0.5-0.3c-0.1-0.1-0.3-0.3-0.3-0.4
			s-0.1-0.4-0.1-0.6c0-0.8,0.5-1.3,1.6-1.4L100,58.2z M100.9,58.5c-0.2,0.1-0.5,0.2-0.7,0.2c-0.2,0-0.5,0.1-0.7,0.1
			c-0.4,0-0.7,0.1-1,0.3c-0.2,0.2-0.3,0.4-0.3,0.7c0,0.1,0,0.3,0.1,0.4c0.1,0.1,0.1,0.2,0.2,0.3c0.1,0.1,0.2,0.1,0.3,0.2
			c0.1,0,0.2,0,0.4,0c0.2,0,0.4,0,0.6-0.1c0.2-0.1,0.4-0.1,0.5-0.2c0.2-0.1,0.3-0.3,0.4-0.4c0.1-0.2,0.1-0.4,0.1-0.6V58.5z"/>
		<path class="st2" d="M103.5,60.9H103v-4.7h0.5v0.6c0.2-0.2,0.4-0.4,0.7-0.6c0.2-0.1,0.5-0.2,0.8-0.2c0.3,0,0.6,0,0.8,0.1
			c0.2,0.1,0.5,0.3,0.6,0.5c0.1,0.2,0.2,0.3,0.2,0.5c0,0.2,0,0.4,0,0.6v3.1h-0.5v-3c0-0.4-0.1-0.7-0.3-0.9s-0.5-0.3-0.9-0.3
			c-0.2,0-0.3,0-0.5,0.1c-0.1,0.1-0.3,0.1-0.4,0.2c-0.1,0.1-0.2,0.2-0.3,0.3s-0.1,0.2-0.2,0.3c-0.1,0.1-0.1,0.3-0.1,0.4
			c0,0.1,0,0.3,0,0.4V60.9z"/>
		<path class="st2" d="M111.7,54.4h0.5v6.5h-0.5v-0.8h0c-0.1,0.2-0.2,0.3-0.3,0.4c-0.1,0.1-0.3,0.2-0.4,0.3
			c-0.1,0.1-0.3,0.1-0.5,0.2c-0.2,0-0.3,0.1-0.5,0.1c-0.4,0-0.7-0.1-1-0.2s-0.5-0.3-0.7-0.5c-0.2-0.2-0.3-0.5-0.4-0.8
			c-0.1-0.3-0.1-0.6-0.1-1c0-0.3,0-0.6,0.1-0.9c0.1-0.3,0.2-0.6,0.4-0.8c0.2-0.2,0.4-0.4,0.6-0.5c0.3-0.1,0.6-0.2,0.9-0.2
			c0.3,0,0.6,0.1,0.9,0.2c0.3,0.1,0.5,0.4,0.7,0.7V54.4z M111.7,58.6c0-0.3,0-0.5-0.1-0.8c-0.1-0.2-0.2-0.4-0.3-0.6
			c-0.1-0.2-0.3-0.3-0.5-0.4s-0.4-0.2-0.7-0.2c-0.3,0-0.5,0.1-0.7,0.2c-0.2,0.1-0.4,0.3-0.5,0.5c-0.1,0.2-0.2,0.4-0.3,0.7
			c-0.1,0.3-0.1,0.5-0.1,0.8c0,0.3,0,0.6,0.1,0.8c0.1,0.2,0.2,0.4,0.3,0.6s0.3,0.3,0.5,0.4s0.4,0.1,0.6,0.1c0.3,0,0.5-0.1,0.7-0.2
			c0.2-0.1,0.4-0.2,0.5-0.4c0.1-0.2,0.2-0.4,0.3-0.6S111.7,58.9,111.7,58.6z"/>
		<path class="st2" d="M116.3,60.9v-6.5h0.9l2.1,5.7h0l2.1-5.7h0.9v6.5h-0.6v-5.8h0l-2.1,5.8h-0.6l-2.1-5.8h0v5.8H116.3z"/>
		<path class="st2" d="M126,58.2c0.1,0,0.2,0,0.4-0.1c0.1,0,0.3-0.1,0.3-0.1s0.1-0.1,0.2-0.2s0-0.2,0-0.3c0-0.3-0.1-0.5-0.3-0.7
			c-0.2-0.2-0.5-0.3-0.9-0.3c-0.2,0-0.4,0-0.5,0c-0.2,0-0.3,0.1-0.4,0.2c-0.1,0.1-0.2,0.2-0.3,0.3c-0.1,0.1-0.1,0.3-0.1,0.5h-0.5
			c0-0.3,0.1-0.5,0.2-0.7c0.1-0.2,0.2-0.4,0.4-0.5c0.2-0.1,0.4-0.2,0.6-0.3c0.2-0.1,0.5-0.1,0.7-0.1c0.2,0,0.5,0,0.7,0.1
			s0.4,0.1,0.5,0.2c0.2,0.1,0.3,0.3,0.4,0.4s0.1,0.4,0.1,0.7v2.5c0,0.2,0,0.3,0.1,0.4c0.1,0.1,0.2,0,0.5,0v0.4c0,0-0.1,0-0.2,0.1
			c-0.1,0-0.2,0-0.2,0c-0.1,0-0.2,0-0.2,0c-0.1,0-0.2,0-0.2-0.1c-0.1,0-0.1-0.1-0.1-0.2c0-0.1-0.1-0.1-0.1-0.2c0-0.1,0-0.2,0-0.2
			c-0.2,0.3-0.5,0.4-0.8,0.6c-0.3,0.1-0.6,0.2-1,0.2c-0.2,0-0.4,0-0.6-0.1c-0.2-0.1-0.4-0.1-0.5-0.3c-0.1-0.1-0.3-0.3-0.3-0.4
			s-0.1-0.4-0.1-0.6c0-0.8,0.5-1.3,1.6-1.4L126,58.2z M126.9,58.5c-0.2,0.1-0.5,0.2-0.7,0.2c-0.2,0-0.5,0.1-0.7,0.1
			c-0.4,0-0.7,0.1-1,0.3c-0.2,0.2-0.3,0.4-0.3,0.7c0,0.1,0,0.3,0.1,0.4c0.1,0.1,0.1,0.2,0.2,0.3c0.1,0.1,0.2,0.1,0.3,0.2
			c0.1,0,0.2,0,0.4,0c0.2,0,0.4,0,0.6-0.1c0.2-0.1,0.4-0.1,0.5-0.2c0.2-0.1,0.3-0.3,0.4-0.4c0.1-0.2,0.1-0.4,0.1-0.6V58.5z"/>
		<path class="st2" d="M129.5,60.9h-0.5v-4.7h0.5v0.9h0c0.1-0.4,0.3-0.6,0.6-0.8c0.2-0.1,0.6-0.2,0.9-0.2v0.6c-0.3,0-0.6,0-0.8,0.1
			c-0.2,0.1-0.4,0.2-0.5,0.4c-0.1,0.2-0.2,0.4-0.2,0.6c0,0.2-0.1,0.5-0.1,0.7V60.9z"/>
		<path class="st2" d="M132,60.9v-6.5h0.5v4l2.3-2.2h0.7l-1.7,1.7l2,3h-0.6l-1.7-2.6l-0.9,0.8v1.8H132z"/>
		<path class="st2" d="M136.9,58.7c0,0.3,0,0.5,0.1,0.7c0.1,0.2,0.2,0.4,0.3,0.6c0.1,0.2,0.3,0.3,0.5,0.4c0.2,0.1,0.4,0.1,0.7,0.1
			c0.4,0,0.7-0.1,0.9-0.3c0.3-0.2,0.4-0.4,0.5-0.8h0.6c-0.1,0.2-0.2,0.4-0.3,0.6c-0.1,0.2-0.2,0.4-0.4,0.5s-0.4,0.3-0.6,0.3
			c-0.2,0.1-0.5,0.1-0.8,0.1c-0.4,0-0.7-0.1-1-0.2s-0.5-0.3-0.7-0.5c-0.2-0.2-0.3-0.5-0.4-0.8s-0.1-0.6-0.1-1s0-0.7,0.1-1
			c0.1-0.3,0.2-0.6,0.4-0.8s0.4-0.4,0.7-0.5c0.3-0.1,0.6-0.2,0.9-0.2c0.6,0,1.1,0.2,1.5,0.7c0.4,0.4,0.5,1.1,0.5,1.9H136.9z
			 M140,58.3c0-0.2,0-0.4-0.1-0.6s-0.2-0.4-0.3-0.5s-0.3-0.3-0.5-0.4s-0.4-0.1-0.6-0.1c-0.2,0-0.5,0-0.6,0.1
			c-0.2,0.1-0.3,0.2-0.5,0.4c-0.1,0.2-0.2,0.3-0.3,0.5c-0.1,0.2-0.1,0.4-0.2,0.6H140z"/>
		<path class="st2" d="M143.3,60.9c-0.1,0-0.2,0-0.3,0.1c-0.1,0-0.2,0-0.4,0c-0.3,0-0.5-0.1-0.6-0.2c-0.1-0.1-0.2-0.4-0.2-0.7v-3.4
			h-0.7v-0.5h0.7V55h0.5v1.3h0.9v0.5h-0.9v3.2c0,0.1,0,0.2,0,0.3c0,0.1,0,0.2,0.1,0.2c0,0.1,0.1,0.1,0.1,0.1s0.2,0,0.3,0
			c0.1,0,0.1,0,0.2,0s0.1,0,0.2,0V60.9z"/>
		<path class="st2" d="M144.3,55.2v-0.8h0.6v0.8H144.3z M144.4,60.9v-4.7h0.5v4.7H144.4z"/>
		<path class="st2" d="M146.9,60.9h-0.5v-4.7h0.5v0.6c0.2-0.2,0.4-0.4,0.7-0.6c0.2-0.1,0.5-0.2,0.8-0.2c0.3,0,0.6,0,0.8,0.1
			c0.2,0.1,0.5,0.3,0.6,0.5c0.1,0.2,0.2,0.3,0.2,0.5c0,0.2,0,0.4,0,0.6v3.1h-0.5v-3c0-0.4-0.1-0.7-0.3-0.9s-0.5-0.3-0.9-0.3
			c-0.2,0-0.3,0-0.5,0.1c-0.1,0.1-0.3,0.1-0.4,0.2c-0.1,0.1-0.2,0.2-0.3,0.3s-0.1,0.2-0.2,0.3c-0.1,0.1-0.1,0.3-0.1,0.4
			c0,0.1,0,0.3,0,0.4V60.9z"/>
		<path class="st2" d="M155.1,56.3h0.5v4.2c0,0.3,0,0.6-0.1,0.9c-0.1,0.3-0.2,0.5-0.3,0.8c-0.2,0.2-0.4,0.4-0.7,0.5
			s-0.6,0.2-1.1,0.2c-0.3,0-0.6,0-0.9-0.1c-0.2-0.1-0.4-0.2-0.6-0.3c-0.2-0.1-0.3-0.3-0.4-0.4c-0.1-0.2-0.1-0.3-0.1-0.4h0.6
			c0,0.2,0.1,0.3,0.2,0.4c0.1,0.1,0.2,0.2,0.3,0.3c0.1,0.1,0.3,0.1,0.4,0.1c0.1,0,0.3,0,0.5,0c0.4,0,0.7-0.1,0.9-0.2
			s0.4-0.3,0.5-0.5c0.1-0.2,0.2-0.4,0.2-0.7c0-0.3,0-0.5,0-0.8c-0.2,0.3-0.4,0.5-0.7,0.7c-0.3,0.1-0.6,0.2-0.9,0.2
			c-0.4,0-0.7-0.1-0.9-0.2c-0.3-0.1-0.5-0.3-0.6-0.5c-0.2-0.2-0.3-0.5-0.4-0.8c-0.1-0.3-0.1-0.6-0.1-0.9c0-0.3,0-0.7,0.1-1
			c0.1-0.3,0.2-0.6,0.4-0.8c0.2-0.2,0.4-0.4,0.7-0.5s0.6-0.2,1-0.2c0.1,0,0.3,0,0.5,0.1c0.2,0,0.3,0.1,0.5,0.2s0.3,0.2,0.4,0.3
			c0.1,0.1,0.2,0.3,0.3,0.4h0V56.3z M155.1,58.6c0-0.3,0-0.5-0.1-0.8c-0.1-0.2-0.2-0.5-0.3-0.6c-0.1-0.2-0.3-0.3-0.5-0.4
			c-0.2-0.1-0.4-0.2-0.7-0.2c-0.2,0-0.4,0-0.6,0.1s-0.4,0.2-0.5,0.4c-0.1,0.2-0.3,0.3-0.3,0.6s-0.1,0.5-0.1,0.8c0,0.3,0,0.6,0.1,0.8
			s0.2,0.5,0.3,0.7s0.3,0.3,0.5,0.5c0.2,0.1,0.4,0.2,0.7,0.2c0.2,0,0.5-0.1,0.7-0.2s0.4-0.2,0.5-0.4c0.1-0.2,0.2-0.4,0.3-0.6
			C155,59.1,155.1,58.9,155.1,58.6z"/>
		<path class="st2" d="M159.1,60.9l2.5-6.5h0.7l2.5,6.5h-0.6l-0.7-2h-3l-0.8,2H159.1z M160.7,58.4h2.5L162,55L160.7,58.4z"/>
		<path class="st2" d="M166.1,59.5c0.1,0.4,0.2,0.7,0.5,0.9c0.2,0.2,0.5,0.2,0.9,0.2c0.2,0,0.4,0,0.5-0.1c0.1,0,0.3-0.1,0.4-0.2
			c0.1-0.1,0.2-0.2,0.2-0.3s0.1-0.2,0.1-0.3c0-0.2-0.1-0.4-0.2-0.5s-0.3-0.2-0.6-0.3c-0.2-0.1-0.5-0.1-0.7-0.2
			c-0.3,0-0.5-0.1-0.7-0.2c-0.2-0.1-0.4-0.2-0.6-0.4c-0.1-0.2-0.2-0.4-0.2-0.7c0-0.4,0.1-0.7,0.4-1c0.3-0.2,0.7-0.4,1.2-0.4
			c0.5,0,0.9,0.1,1.2,0.3c0.3,0.2,0.5,0.6,0.6,1.1h-0.5c0-0.4-0.2-0.6-0.4-0.8s-0.5-0.2-0.9-0.2c-0.3,0-0.6,0.1-0.8,0.2
			c-0.2,0.1-0.3,0.3-0.3,0.6c0,0.2,0.1,0.4,0.2,0.5c0.1,0.1,0.3,0.2,0.6,0.3c0.2,0.1,0.5,0.1,0.7,0.2c0.3,0.1,0.5,0.1,0.7,0.2
			c0.2,0.1,0.4,0.2,0.6,0.4c0.1,0.2,0.2,0.4,0.2,0.7c0,0.2,0,0.4-0.1,0.6c-0.1,0.2-0.2,0.3-0.4,0.4c-0.2,0.1-0.4,0.2-0.6,0.3
			s-0.5,0.1-0.8,0.1s-0.5,0-0.7-0.1c-0.2-0.1-0.4-0.2-0.5-0.3c-0.2-0.1-0.3-0.3-0.4-0.5s-0.1-0.4-0.1-0.6H166.1z"/>
		<path class="st2" d="M170.6,59.5c0.1,0.4,0.2,0.7,0.5,0.9c0.2,0.2,0.5,0.2,0.9,0.2c0.2,0,0.4,0,0.5-0.1c0.1,0,0.3-0.1,0.4-0.2
			c0.1-0.1,0.2-0.2,0.2-0.3s0.1-0.2,0.1-0.3c0-0.2-0.1-0.4-0.2-0.5s-0.3-0.2-0.6-0.3c-0.2-0.1-0.5-0.1-0.7-0.2
			c-0.3,0-0.5-0.1-0.7-0.2c-0.2-0.1-0.4-0.2-0.6-0.4c-0.1-0.2-0.2-0.4-0.2-0.7c0-0.4,0.1-0.7,0.4-1c0.3-0.2,0.7-0.4,1.2-0.4
			c0.5,0,0.9,0.1,1.2,0.3c0.3,0.2,0.5,0.6,0.6,1.1h-0.5c0-0.4-0.2-0.6-0.4-0.8s-0.5-0.2-0.9-0.2c-0.3,0-0.6,0.1-0.8,0.2
			c-0.2,0.1-0.3,0.3-0.3,0.6c0,0.2,0.1,0.4,0.2,0.5c0.1,0.1,0.3,0.2,0.6,0.3c0.2,0.1,0.5,0.1,0.7,0.2c0.3,0.1,0.5,0.1,0.7,0.2
			c0.2,0.1,0.4,0.2,0.6,0.4c0.1,0.2,0.2,0.4,0.2,0.7c0,0.2,0,0.4-0.1,0.6c-0.1,0.2-0.2,0.3-0.4,0.4c-0.2,0.1-0.4,0.2-0.6,0.3
			s-0.5,0.1-0.8,0.1s-0.5,0-0.7-0.1c-0.2-0.1-0.4-0.2-0.5-0.3c-0.2-0.1-0.3-0.3-0.4-0.5s-0.1-0.4-0.1-0.6H170.6z"/>
		<path class="st2" d="M176.8,61.1c-0.3,0-0.6-0.1-0.8-0.2c-0.3-0.1-0.5-0.3-0.7-0.5c-0.2-0.2-0.3-0.5-0.5-0.8
			c-0.1-0.3-0.2-0.7-0.2-1.1c0-0.3,0-0.7,0.1-1s0.2-0.6,0.4-0.8c0.2-0.2,0.4-0.4,0.7-0.5c0.3-0.1,0.6-0.2,0.9-0.2
			c0.4,0,0.7,0.1,1,0.2c0.3,0.1,0.5,0.3,0.7,0.5c0.2,0.2,0.3,0.5,0.4,0.8c0.1,0.3,0.1,0.6,0.1,1c0,0.4-0.1,0.7-0.2,1
			c-0.1,0.3-0.2,0.6-0.4,0.8c-0.2,0.2-0.4,0.4-0.7,0.5C177.4,61,177.1,61.1,176.8,61.1z M178.4,58.6c0-0.3,0-0.5-0.1-0.8
			c-0.1-0.2-0.2-0.4-0.3-0.6c-0.1-0.2-0.3-0.3-0.5-0.4c-0.2-0.1-0.4-0.2-0.7-0.2c-0.3,0-0.5,0.1-0.7,0.2c-0.2,0.1-0.4,0.3-0.5,0.4
			s-0.2,0.4-0.3,0.6s-0.1,0.5-0.1,0.7c0,0.3,0,0.6,0.1,0.8c0.1,0.2,0.2,0.5,0.3,0.6c0.1,0.2,0.3,0.3,0.5,0.4
			c0.2,0.1,0.4,0.1,0.7,0.1c0.3,0,0.5-0.1,0.7-0.2c0.2-0.1,0.4-0.3,0.5-0.4c0.1-0.2,0.2-0.4,0.3-0.6
			C178.3,59.1,178.4,58.8,178.4,58.6z"/>
		<path class="st2" d="M183.3,57.7c-0.1-0.3-0.3-0.6-0.5-0.8c-0.2-0.2-0.5-0.3-0.9-0.3c-0.3,0-0.5,0.1-0.7,0.2
			c-0.2,0.1-0.4,0.3-0.5,0.5c-0.1,0.2-0.2,0.4-0.3,0.6c-0.1,0.2-0.1,0.5-0.1,0.7c0,0.2,0,0.5,0.1,0.7s0.1,0.4,0.3,0.6
			c0.1,0.2,0.3,0.3,0.5,0.4c0.2,0.1,0.4,0.2,0.7,0.2c0.4,0,0.7-0.1,1-0.3c0.2-0.2,0.4-0.5,0.5-0.9h0.6c0,0.3-0.1,0.5-0.2,0.7
			s-0.2,0.4-0.4,0.5s-0.4,0.3-0.6,0.4s-0.5,0.1-0.8,0.1c-0.4,0-0.7-0.1-1-0.2s-0.5-0.3-0.7-0.5c-0.2-0.2-0.3-0.5-0.4-0.8
			c-0.1-0.3-0.1-0.6-0.1-1c0-0.3,0-0.6,0.1-0.9c0.1-0.3,0.2-0.6,0.4-0.8c0.2-0.2,0.4-0.4,0.7-0.5c0.3-0.1,0.6-0.2,0.9-0.2
			c0.5,0,1,0.1,1.3,0.4s0.5,0.7,0.6,1.2H183.3z"/>
		<path class="st2" d="M185.2,55.2v-0.8h0.6v0.8H185.2z M185.2,60.9v-4.7h0.5v4.7H185.2z"/>
		<path class="st2" d="M189.3,58.2c0.1,0,0.2,0,0.4-0.1c0.1,0,0.3-0.1,0.3-0.1s0.1-0.1,0.2-0.2s0-0.2,0-0.3c0-0.3-0.1-0.5-0.3-0.7
			c-0.2-0.2-0.5-0.3-0.9-0.3c-0.2,0-0.4,0-0.5,0c-0.2,0-0.3,0.1-0.4,0.2c-0.1,0.1-0.2,0.2-0.3,0.3c-0.1,0.1-0.1,0.3-0.1,0.5h-0.5
			c0-0.3,0.1-0.5,0.2-0.7c0.1-0.2,0.2-0.4,0.4-0.5c0.2-0.1,0.4-0.2,0.6-0.3c0.2-0.1,0.5-0.1,0.7-0.1c0.2,0,0.5,0,0.7,0.1
			s0.4,0.1,0.5,0.2c0.2,0.1,0.3,0.3,0.4,0.4s0.1,0.4,0.1,0.7v2.5c0,0.2,0,0.3,0.1,0.4c0.1,0.1,0.2,0,0.5,0v0.4c0,0-0.1,0-0.2,0.1
			c-0.1,0-0.2,0-0.2,0c-0.1,0-0.2,0-0.2,0c-0.1,0-0.2,0-0.2-0.1c-0.1,0-0.1-0.1-0.1-0.2c0-0.1-0.1-0.1-0.1-0.2c0-0.1,0-0.2,0-0.2
			c-0.2,0.3-0.5,0.4-0.8,0.6c-0.3,0.1-0.6,0.2-1,0.2c-0.2,0-0.4,0-0.6-0.1c-0.2-0.1-0.4-0.1-0.5-0.3c-0.1-0.1-0.3-0.3-0.3-0.4
			s-0.1-0.4-0.1-0.6c0-0.8,0.5-1.3,1.6-1.4L189.3,58.2z M190.2,58.5c-0.2,0.1-0.5,0.2-0.7,0.2c-0.2,0-0.5,0.1-0.7,0.1
			c-0.4,0-0.7,0.1-1,0.3c-0.2,0.2-0.3,0.4-0.3,0.7c0,0.1,0,0.3,0.1,0.4c0.1,0.1,0.1,0.2,0.2,0.3c0.1,0.1,0.2,0.1,0.3,0.2
			c0.1,0,0.2,0,0.4,0c0.2,0,0.4,0,0.6-0.1c0.2-0.1,0.4-0.1,0.5-0.2c0.2-0.1,0.3-0.3,0.4-0.4c0.1-0.2,0.1-0.4,0.1-0.6V58.5z"/>
		<path class="st2" d="M193.9,60.9c-0.1,0-0.2,0-0.3,0.1c-0.1,0-0.2,0-0.4,0c-0.3,0-0.5-0.1-0.6-0.2c-0.1-0.1-0.2-0.4-0.2-0.7v-3.4
			h-0.7v-0.5h0.7V55h0.5v1.3h0.9v0.5H193v3.2c0,0.1,0,0.2,0,0.3c0,0.1,0,0.2,0.1,0.2c0,0.1,0.1,0.1,0.1,0.1s0.2,0,0.3,0
			c0.1,0,0.1,0,0.2,0s0.1,0,0.2,0V60.9z"/>
		<path class="st2" d="M194.9,55.2v-0.8h0.6v0.8H194.9z M195,60.9v-4.7h0.5v4.7H195z"/>
		<path class="st2" d="M198.8,61.1c-0.3,0-0.6-0.1-0.8-0.2c-0.3-0.1-0.5-0.3-0.7-0.5c-0.2-0.2-0.3-0.5-0.5-0.8
			c-0.1-0.3-0.2-0.7-0.2-1.1c0-0.3,0-0.7,0.1-1s0.2-0.6,0.4-0.8c0.2-0.2,0.4-0.4,0.7-0.5c0.3-0.1,0.6-0.2,0.9-0.2
			c0.4,0,0.7,0.1,1,0.2c0.3,0.1,0.5,0.3,0.7,0.5c0.2,0.2,0.3,0.5,0.4,0.8c0.1,0.3,0.1,0.6,0.1,1c0,0.4-0.1,0.7-0.2,1
			c-0.1,0.3-0.2,0.6-0.4,0.8c-0.2,0.2-0.4,0.4-0.7,0.5C199.4,61,199.1,61.1,198.8,61.1z M200.4,58.6c0-0.3,0-0.5-0.1-0.8
			c-0.1-0.2-0.2-0.4-0.3-0.6c-0.1-0.2-0.3-0.3-0.5-0.4c-0.2-0.1-0.4-0.2-0.7-0.2c-0.3,0-0.5,0.1-0.7,0.2c-0.2,0.1-0.4,0.3-0.5,0.4
			s-0.2,0.4-0.3,0.6s-0.1,0.5-0.1,0.7c0,0.3,0,0.6,0.1,0.8c0.1,0.2,0.2,0.5,0.3,0.6c0.1,0.2,0.3,0.3,0.5,0.4
			c0.2,0.1,0.4,0.1,0.7,0.1c0.3,0,0.5-0.1,0.7-0.2c0.2-0.1,0.4-0.3,0.5-0.4c0.1-0.2,0.2-0.4,0.3-0.6
			C200.4,59.1,200.4,58.8,200.4,58.6z"/>
		<path class="st2" d="M202.6,60.9h-0.5v-4.7h0.5v0.6c0.2-0.2,0.4-0.4,0.7-0.6c0.2-0.1,0.5-0.2,0.8-0.2c0.3,0,0.6,0,0.8,0.1
			c0.2,0.1,0.5,0.3,0.6,0.5c0.1,0.2,0.2,0.3,0.2,0.5c0,0.2,0,0.4,0,0.6v3.1h-0.5v-3c0-0.4-0.1-0.7-0.3-0.9s-0.5-0.3-0.9-0.3
			c-0.2,0-0.3,0-0.5,0.1c-0.1,0.1-0.3,0.1-0.4,0.2c-0.1,0.1-0.2,0.2-0.3,0.3s-0.1,0.2-0.2,0.3c-0.1,0.1-0.1,0.3-0.1,0.4
			c0,0.1,0,0.3,0,0.4V60.9z"/>
	</g>
</g>
</svg>
