<svg id="圖層_1" data-name="圖層 1" xmlns="http://www.w3.org/2000/svg" viewBox="0 0 213.33 66.45"><defs><style>.cls-1{fill:#b78b00;}</style></defs><title>logo</title><path class="cls-1" d="M222.22,682.37a8,8,0,0,1-3.59-.64V671.3a6.69,6.69,0,0,1,1.53-.47,10,10,0,0,1,1.93-.17,5.19,5.19,0,0,1,4.13,1.55,6.21,6.21,0,0,1,1.35,4.23,6.68,6.68,0,0,1-1.31,4.33A4.89,4.89,0,0,1,222.22,682.37ZM222.14,672a3.69,3.69,0,0,0-1.19.17v8.55a4.18,4.18,0,0,0,.53.12,4.58,4.58,0,0,0,.7,0,2.55,2.55,0,0,0,2.31-1.08,6.44,6.44,0,0,0,.71-3.43,6,6,0,0,0-.73-3.31A2.62,2.62,0,0,0,222.14,672Z" transform="translate(-93 -657.63)"/><path class="cls-1" d="M231.32,671.74a1.35,1.35,0,0,1-.87-.29.88.88,0,0,1-.36-.7.89.89,0,0,1,.36-.72,1.49,1.49,0,0,1,1.76,0,.89.89,0,0,1,.35.73.88.88,0,0,1-.36.7A1.35,1.35,0,0,1,231.32,671.74ZM230.2,682.2v-8.92h2.24v8.92Z" transform="translate(-93 -657.63)"/><path class="cls-1" d="M238.95,685.92a10.65,10.65,0,0,1-2-.16,5,5,0,0,1-1.42-.46l.63-1.33a5.32,5.32,0,0,0,1.09.38,5.23,5.23,0,0,0,1.29.16,2.43,2.43,0,0,0,1.74-.53,2,2,0,0,0,.54-1.49v-.56a4.16,4.16,0,0,1-1.86.33,3.79,3.79,0,0,1-2.9-1.17,4.45,4.45,0,0,1-1.09-3.18,4.9,4.9,0,0,1,1.22-3.52,4.7,4.7,0,0,1,3.58-1.29,9.36,9.36,0,0,1,1.88.17,4.32,4.32,0,0,1,1.33.47v8.56a3.33,3.33,0,0,1-1.08,2.68A4.45,4.45,0,0,1,238.95,685.92Zm1.89-11.42a2.63,2.63,0,0,0-1.16-.2,2.08,2.08,0,0,0-1.87.91,4.74,4.74,0,0,0-.6,2.61,4.35,4.35,0,0,0,.56,2.46,2,2,0,0,0,1.79.81,2.68,2.68,0,0,0,1.27-.28Z" transform="translate(-93 -657.63)"/><path class="cls-1" d="M247.06,671.74a1.35,1.35,0,0,1-.87-.29.88.88,0,0,1-.36-.7.89.89,0,0,1,.36-.72,1.49,1.49,0,0,1,1.76,0,.89.89,0,0,1,.35.73.88.88,0,0,1-.36.7A1.35,1.35,0,0,1,247.06,671.74Zm-1.12,10.46v-8.92h2.24v8.92Z" transform="translate(-93 -657.63)"/><path class="cls-1" d="M254.39,682.3a2.73,2.73,0,0,1-2.05-.7,2.38,2.38,0,0,1-.67-1.72v-5.31h-1.1v-1.29h1.1v-2l2.24-.56v2.54h1.62v1.29h-1.62v5.21q0,1.16,1.08,1.16a2.16,2.16,0,0,0,.53-.08v1.26a2.1,2.1,0,0,1-.47.12A3.74,3.74,0,0,1,254.39,682.3Z" transform="translate(-93 -657.63)"/><path class="cls-1" d="M261.43,682.37a5.33,5.33,0,0,1-3-.7,2.29,2.29,0,0,1-1-2,2.43,2.43,0,0,1,1.45-2.34,11.74,11.74,0,0,1,4.08-1v-.48a1.26,1.26,0,0,0-.51-1.14,2.68,2.68,0,0,0-1.46-.33,5.71,5.71,0,0,0-1.29.14,6.54,6.54,0,0,0-1.2.41l-.52-1.16a8.72,8.72,0,0,1,1.48-.48,8.37,8.37,0,0,1,1.92-.2,4.46,4.46,0,0,1,2.67.72,2.71,2.71,0,0,1,1,2.36v5.53a6.8,6.8,0,0,1-1.54.46A10.71,10.71,0,0,1,261.43,682.37Zm1.49-5a7.3,7.3,0,0,0-2.61.66,1.68,1.68,0,0,0-.83,1.61,1.47,1.47,0,0,0,.54,1.25,2.54,2.54,0,0,0,1.55.41,3.28,3.28,0,0,0,1.35-.25Z" transform="translate(-93 -657.63)"/><path class="cls-1" d="M268,682.2v-13h2.24v13Z" transform="translate(-93 -657.63)"/><path class="cls-1" d="M221.13,699.22a8.81,8.81,0,0,1-1.83-.16,4.42,4.42,0,0,1-1.3-.49l.57-1.47a3.72,3.72,0,0,0,.92.38,4.43,4.43,0,0,0,1.2.15,2.16,2.16,0,0,0,1.47-.48,1.6,1.6,0,0,0,.55-1.27,1.45,1.45,0,0,0-.45-1.08,5.21,5.21,0,0,0-1.7-.91,3.91,3.91,0,0,1-1.84-1.27,2.91,2.91,0,0,1-.59-1.76,3.12,3.12,0,0,1,1-2.37,3.87,3.87,0,0,1,2.75-1,6.71,6.71,0,0,1,1.61.17,4.11,4.11,0,0,1,1.17.47l-.51,1.3a4.33,4.33,0,0,0-.88-.37,3.59,3.59,0,0,0-1.07-.15,1.89,1.89,0,0,0-1.34.45,1.58,1.58,0,0,0-.48,1.21,1.39,1.39,0,0,0,.49,1.1,6.41,6.41,0,0,0,1.8.92,3.94,3.94,0,0,1,1.89,1.32,3.1,3.1,0,0,1,.58,1.83,3.15,3.15,0,0,1-1.14,2.5A4.3,4.3,0,0,1,221.13,699.22Z" transform="translate(-93 -657.63)"/><path class="cls-1" d="M228.89,688.6a1.35,1.35,0,0,1-.87-.29.88.88,0,0,1-.36-.7.89.89,0,0,1,.36-.72,1.49,1.49,0,0,1,1.76,0,.89.89,0,0,1,.35.73.88.88,0,0,1-.36.7A1.35,1.35,0,0,1,228.89,688.6Zm-1.12,10.46v-8.92H230v8.92Z" transform="translate(-93 -657.63)"/><path class="cls-1" d="M238.51,699.05v-6.32a1.48,1.48,0,0,0-.4-1.07,1.86,1.86,0,0,0-1.38-.42,5,5,0,0,0-.85.06,4.19,4.19,0,0,0-.7.19v7.56h-2.24v-8.44a7.78,7.78,0,0,1,1.69-.47,12.78,12.78,0,0,1,2.19-.17,4.71,4.71,0,0,1,3,.77,2.43,2.43,0,0,1,.94,2v6.35Z" transform="translate(-93 -657.63)"/><path class="cls-1" d="M247.19,702.78a10.66,10.66,0,0,1-2-.16,5,5,0,0,1-1.42-.46l.63-1.33a5.31,5.31,0,0,0,1.09.38,5.23,5.23,0,0,0,1.29.16,2.43,2.43,0,0,0,1.74-.53,2,2,0,0,0,.54-1.49v-.56a4.16,4.16,0,0,1-1.86.33,3.79,3.79,0,0,1-2.9-1.16,4.46,4.46,0,0,1-1.09-3.18,4.9,4.9,0,0,1,1.22-3.52A4.7,4.7,0,0,1,248,690a9.35,9.35,0,0,1,1.88.17,4.32,4.32,0,0,1,1.33.47v8.56a3.33,3.33,0,0,1-1.08,2.68A4.45,4.45,0,0,1,247.19,702.78Zm1.89-11.42a2.63,2.63,0,0,0-1.16-.2,2.08,2.08,0,0,0-1.87.91,4.74,4.74,0,0,0-.6,2.61,4.35,4.35,0,0,0,.56,2.46,2,2,0,0,0,1.79.81,2.68,2.68,0,0,0,1.27-.28Z" transform="translate(-93 -657.63)"/><path class="cls-1" d="M257.94,699.24a4.57,4.57,0,0,1-2.9-.76,2.72,2.72,0,0,1-.95-2.25v-6.09h2.24v6.19a1.48,1.48,0,0,0,.4,1.1,1.73,1.73,0,0,0,1.27.4,3.29,3.29,0,0,0,1.49-.3v-7.4h2.24v8.39a6.83,6.83,0,0,1-1.63.51A11,11,0,0,1,257.94,699.24Z" transform="translate(-93 -657.63)"/><path class="cls-1" d="M264.69,699.05v-13h2.24v13Z" transform="translate(-93 -657.63)"/><path class="cls-1" d="M273.44,699.22a5.33,5.33,0,0,1-3-.7,2.29,2.29,0,0,1-1-2,2.43,2.43,0,0,1,1.45-2.34,11.75,11.75,0,0,1,4.08-1v-.48a1.26,1.26,0,0,0-.51-1.14,2.68,2.68,0,0,0-1.46-.33,5.71,5.71,0,0,0-1.29.14,6.54,6.54,0,0,0-1.2.41l-.52-1.16a8.72,8.72,0,0,1,1.48-.48,8.37,8.37,0,0,1,1.92-.2,4.46,4.46,0,0,1,2.67.72,2.71,2.71,0,0,1,1,2.36v5.53a6.8,6.8,0,0,1-1.54.46A10.71,10.71,0,0,1,273.44,699.22Zm1.49-5a7.3,7.3,0,0,0-2.61.66,1.68,1.68,0,0,0-.83,1.61,1.47,1.47,0,0,0,.54,1.25,2.54,2.54,0,0,0,1.55.41,3.28,3.28,0,0,0,1.35-.25Z" transform="translate(-93 -657.63)"/><path class="cls-1" d="M284.21,691.46a3.81,3.81,0,0,0-1-.15,2.28,2.28,0,0,0-1.07.21v7.53h-2.24v-8.44a7.28,7.28,0,0,1,1.86-.48,22.47,22.47,0,0,1,2.92-.15Z" transform="translate(-93 -657.63)"/><path class="cls-1" d="M287.78,688.6a1.35,1.35,0,0,1-.87-.29.88.88,0,0,1-.36-.7.89.89,0,0,1,.36-.72,1.49,1.49,0,0,1,1.76,0,.89.89,0,0,1,.35.73.88.88,0,0,1-.36.7A1.35,1.35,0,0,1,287.78,688.6Zm-1.12,10.46v-8.92h2.24v8.92Z" transform="translate(-93 -657.63)"/><path class="cls-1" d="M295.12,699.15a2.73,2.73,0,0,1-2.05-.7,2.38,2.38,0,0,1-.67-1.72v-5.31h-1.1v-1.29h1.1v-2l2.24-.56v2.54h1.62v1.29h-1.62v5.21q0,1.16,1.08,1.16a2.16,2.16,0,0,0,.53-.08V699a2.1,2.1,0,0,1-.47.12A3.74,3.74,0,0,1,295.12,699.15Z" transform="translate(-93 -657.63)"/><path class="cls-1" d="M301.81,702.6h-2.37l1.62-3.55-3.27-8.91h2.39l1.71,5.78a4.32,4.32,0,0,1,.16.8q0,.34,0,.47.06-.21.11-.52a5.54,5.54,0,0,1,.2-.75l1.84-5.77h2.09Z" transform="translate(-93 -657.63)"/><path class="cls-1" d="M225.71,715.91l-1-2.93h-4.08l-1,2.93h-2.11l4.19-11.38h2.21l4.17,11.38Zm-2.61-8.16a7.65,7.65,0,0,1-.2-.79c0-.25-.09-.44-.13-.59,0,.14-.06.3-.1.48s-.14.48-.28.9l-1.36,4h3.37Z" transform="translate(-93 -657.63)"/><path class="cls-1" d="M240,715.91h-2l-1.72-5.59a3.18,3.18,0,0,1-.15-.63c0-.2,0-.37-.06-.51l-.08.47a5.86,5.86,0,0,1-.17.67l-1.75,5.59h-2L229.31,707h2.27l1.44,5.78a4.24,4.24,0,0,1,.14.74q0,.33,0,.43l.09-.5.2-.68,1.75-5.78h1.87l1.67,5.78a4.49,4.49,0,0,1,.17.73,4.1,4.1,0,0,0,.08.45l.07-.45q0-.22.16-.75l1.53-5.76h2Z" transform="translate(-93 -657.63)"/><path class="cls-1" d="M248.49,716.07a5.33,5.33,0,0,1-3-.7,2.29,2.29,0,0,1-1-2A2.43,2.43,0,0,1,245.9,711a11.75,11.75,0,0,1,4.08-1v-.48a1.26,1.26,0,0,0-.51-1.14,2.68,2.68,0,0,0-1.46-.33,5.71,5.71,0,0,0-1.29.14,6.53,6.53,0,0,0-1.2.41L245,707.5a8.72,8.72,0,0,1,1.48-.48,8.36,8.36,0,0,1,1.92-.2,4.46,4.46,0,0,1,2.67.72,2.71,2.71,0,0,1,1,2.36v5.53a6.8,6.8,0,0,1-1.54.46A10.71,10.71,0,0,1,248.49,716.07Zm1.49-5a7.3,7.3,0,0,0-2.61.66,1.68,1.68,0,0,0-.83,1.61,1.47,1.47,0,0,0,.54,1.25,2.54,2.54,0,0,0,1.55.41,3.28,3.28,0,0,0,1.35-.25Z" transform="translate(-93 -657.63)"/><path class="cls-1" d="M259.27,708.31a3.81,3.81,0,0,0-1-.15,2.28,2.28,0,0,0-1.07.21v7.53h-2.24v-8.44a7.27,7.27,0,0,1,1.86-.48,22.45,22.45,0,0,1,2.92-.15Z" transform="translate(-93 -657.63)"/><path class="cls-1" d="M265.88,716.07a4.64,4.64,0,0,1-3.4-1.19,4.45,4.45,0,0,1-1.21-3.33,4.74,4.74,0,0,1,1.19-3.4,4.14,4.14,0,0,1,3.15-1.25,5.87,5.87,0,0,1,1.49.17v-4.15h2.24v12.51a5.76,5.76,0,0,1-1.47.47A10.38,10.38,0,0,1,265.88,716.07Zm1.21-7.91a3.92,3.92,0,0,0-1-.12,2.23,2.23,0,0,0-2,.91,5.39,5.39,0,0,0,0,4.95,2.08,2.08,0,0,0,1.86.88,2.48,2.48,0,0,0,1.16-.2Z" transform="translate(-93 -657.63)"/><path class="cls-1" d="M274.32,716.06a6.59,6.59,0,0,1-1.55-.17,4.06,4.06,0,0,1-1.19-.47l.59-1.3a2.69,2.69,0,0,0,.78.37,3.49,3.49,0,0,0,1.08.16,1.68,1.68,0,0,0,1.1-.35,1.13,1.13,0,0,0,.42-.91,1.17,1.17,0,0,0-.32-.89,4.19,4.19,0,0,0-1.38-.67,3.18,3.18,0,0,1-1.54-1,2.29,2.29,0,0,1-.48-1.43,2.34,2.34,0,0,1,.87-1.83,3.35,3.35,0,0,1,2.27-.75,5.93,5.93,0,0,1,1.43.16,4.13,4.13,0,0,1,1.14.47l-.55,1.17a2.89,2.89,0,0,0-.67-.35,2.57,2.57,0,0,0-.91-.15,1.5,1.5,0,0,0-1,.34,1.08,1.08,0,0,0-.38.84,1,1,0,0,0,.37.83,5,5,0,0,0,1.42.7,3.45,3.45,0,0,1,1.55,1,2.33,2.33,0,0,1,.51,1.51,2.4,2.4,0,0,1-1,1.93A3.94,3.94,0,0,1,274.32,716.06Z" transform="translate(-93 -657.63)"/><path class="cls-1" d="M190.73,669.55c-6.62-.93-13.75-.6-20.35,5L152,662.24l-6.9-4.61v19.42a27.86,27.86,0,0,0-7.93-4.93,17.42,17.42,0,0,0-8.65-1.26A12.42,12.42,0,0,0,118.26,679c-1.88,6.1.69,11.87,6.89,15.43.77.44,1.6.85,2.47,1.29,1.83.91,5.74,2.32,4.43,5.11-.89,1.87-3.75,2.53-5.62,2.64a25.51,25.51,0,0,1-10.48-1.92c-.81-.31-1.67-.67-2.55-1a26.27,26.27,0,0,0,1.82-9.94c0-18.27-15.48-24.21-22.21-25.51v9c1.24.26,14.47,3.15,14.47,16.55a16.58,16.58,0,0,1-1.25,6.54A62.85,62.85,0,0,1,93,687.57v10c2.58,2.78,5.1,4.22,7.76,6.13A21.88,21.88,0,0,1,93,707.12v9a30.53,30.53,0,0,0,15.73-8.36c1.37.62,2.76,1.21,4.17,1.75a43.87,43.87,0,0,0,14.52,3c5.51,0,12-2.29,13.85-8,3-9.32-5.71-14.21-9.88-16.28-.76-.38-1.47-.73-2-1-4-2.31-3.26-4.77-3-5.58.33-1.05,1.8-2,3.19-2.26a13,13,0,0,1,7.29.83c.47.22,5.51,2.65,8.27,6.79v37.19H154V674.24L165.64,682a27.67,27.67,0,0,0-2,14,19.62,19.62,0,0,0,14.2,16.55,17.63,17.63,0,0,0,5.41.59c7.8-.35,13.58-6.08,13.58-13.58a13.56,13.56,0,0,0-5.27-10.74c-.53-.48-1.89-1.44-13.57-9.25,1.76-1.9,6.47-2.36,8.56-2.15a30.81,30.81,0,0,1,22.74,13.87V678.48A33.06,33.06,0,0,0,190.73,669.55Zm-6.09,25.18a5.38,5.38,0,0,1-2.95,9.89c-6,.31-8.84-6.06-9.25-9.62a18.74,18.74,0,0,1,.79-7.91Z" transform="translate(-93 -657.63)"/></svg>