<?xml version="1.0" encoding="utf-8"?>
<!-- Generator: Adobe Illustrator 20.1.0, SVG Export Plug-In . SVG Version: 6.00 Build 0)  -->
<svg version="1.1" id="圖層_1" xmlns="http://www.w3.org/2000/svg" xmlns:xlink="http://www.w3.org/1999/xlink" x="0px" y="0px"
	 viewBox="0 0 213.3 66.4" style="enable-background:new 0 0 213.3 66.4;" xml:space="preserve">
<style type="text/css">
	.st0{fill:#FFFFFF;}
</style>
<title>logo</title>
<path class="st0" d="M129.2,24.7c-1.2,0.1-2.5-0.2-3.6-0.6V13.7c0.5-0.2,1-0.4,1.5-0.5c0.6-0.1,1.3-0.2,1.9-0.2
	c1.5-0.1,3.1,0.4,4.1,1.5c1,1.2,1.4,2.7,1.4,4.2c0.1,1.6-0.4,3.1-1.3,4.3C132.2,24.3,130.7,24.9,129.2,24.7z M129.1,14.4
	c-0.4,0-0.8,0-1.2,0.2v8.5c0.2,0.1,0.4,0.1,0.5,0.1c0.2,0,0.5,0,0.7,0c0.9,0.1,1.8-0.3,2.3-1.1c0.5-1.1,0.8-2.2,0.7-3.4
	c0.1-1.2-0.2-2.3-0.7-3.3C130.9,14.7,130,14.3,129.1,14.4z"/>
<path class="st0" d="M138.3,14.1c-0.3,0-0.6-0.1-0.9-0.3c-0.2-0.2-0.4-0.4-0.4-0.7c0-0.3,0.1-0.6,0.4-0.7c0.5-0.4,1.2-0.4,1.8,0
	c0.2,0.2,0.4,0.4,0.4,0.7c0,0.3-0.1,0.5-0.4,0.7C138.9,14,138.6,14.1,138.3,14.1z M137.2,24.6v-8.9h2.2v8.9H137.2z"/>
<path class="st0" d="M145.9,28.3c-0.7,0-1.3,0-2-0.2c-0.5-0.1-1-0.2-1.4-0.5l0.6-1.3c0.3,0.2,0.7,0.3,1.1,0.4
	c0.4,0.1,0.9,0.2,1.3,0.2c0.6,0.1,1.3-0.1,1.7-0.5c0.4-0.4,0.6-0.9,0.5-1.5v-0.6c-0.6,0.3-1.2,0.4-1.9,0.3c-1.1,0-2.1-0.4-2.9-1.2
	c-0.8-0.9-1.2-2-1.1-3.2c-0.1-1.3,0.4-2.6,1.2-3.5c1-0.9,2.3-1.4,3.6-1.3c0.6,0,1.3,0.1,1.9,0.2c0.5,0.1,0.9,0.2,1.3,0.5v8.6
	c0.1,1-0.3,2-1.1,2.7C148.1,28,147,28.3,145.9,28.3z M147.8,16.9c-0.4-0.2-0.8-0.2-1.2-0.2c-0.7-0.1-1.5,0.3-1.9,0.9
	c-0.4,0.8-0.7,1.7-0.6,2.6c-0.1,0.9,0.1,1.7,0.6,2.5c0.4,0.6,1.1,0.9,1.8,0.8c0.4,0,0.9-0.1,1.3-0.3L147.8,16.9z"/>
<path class="st0" d="M154.1,14.1c-0.3,0-0.6-0.1-0.9-0.3c-0.2-0.2-0.4-0.4-0.4-0.7c0-0.3,0.1-0.6,0.4-0.7c0.5-0.4,1.2-0.4,1.8,0
	c0.2,0.2,0.4,0.4,0.4,0.7c0,0.3-0.1,0.5-0.4,0.7C154.7,14,154.4,14.1,154.1,14.1z M152.9,24.6v-8.9h2.2v8.9H152.9z"/>
<path class="st0" d="M161.4,24.7c-0.8,0.1-1.5-0.2-2.1-0.7c-0.4-0.5-0.7-1.1-0.7-1.7v-5.3h-1.1v-1.3h1.1v-2l2.2-0.6v2.5h1.6v1.3
	h-1.6v5.2c0,0.8,0.4,1.2,1.1,1.2c0.2,0,0.4,0,0.5-0.1v1.3c-0.2,0.1-0.3,0.1-0.5,0.1C161.8,24.6,161.6,24.7,161.4,24.7z"/>
<path class="st0" d="M168.4,24.7c-1,0.1-2.1-0.2-3-0.7c-0.7-0.4-1-1.2-1-2c0-1,0.5-1.9,1.5-2.3c1.3-0.6,2.7-0.9,4.1-1v-0.5
	c0-0.4-0.2-0.9-0.5-1.1c-0.4-0.2-1-0.4-1.5-0.3c-0.4,0-0.9,0-1.3,0.1c-0.4,0.1-0.8,0.2-1.2,0.4l-0.5-1.2c0.5-0.2,1-0.4,1.5-0.5
	c0.6-0.1,1.3-0.2,1.9-0.2c0.9,0,1.9,0.2,2.7,0.7c0.7,0.6,1.1,1.5,1,2.4v5.5c-0.5,0.2-1,0.4-1.5,0.5
	C169.8,24.7,169.1,24.7,168.4,24.7z M169.9,19.7c-0.9,0.1-1.8,0.3-2.6,0.7c-0.6,0.3-0.9,1-0.8,1.6c0,0.5,0.2,0.9,0.5,1.2
	c0.5,0.3,1,0.4,1.5,0.4c0.5,0,0.9-0.1,1.4-0.2L169.9,19.7z"/>
<path class="st0" d="M175,24.6v-13h2.2v13H175z"/>
<path class="st0" d="M128.1,41.6c-0.6,0-1.2,0-1.8-0.2c-0.5-0.1-0.9-0.3-1.3-0.5l0.6-1.5c0.3,0.2,0.6,0.3,0.9,0.4
	c0.4,0.1,0.8,0.2,1.2,0.2c0.5,0,1.1-0.1,1.5-0.5c0.4-0.3,0.6-0.8,0.6-1.3c0-0.4-0.2-0.8-0.4-1.1c-0.5-0.4-1.1-0.7-1.7-0.9
	c-0.7-0.2-1.4-0.7-1.8-1.3c-0.4-0.5-0.6-1.1-0.6-1.8c0-0.9,0.3-1.8,1-2.4c0.8-0.7,1.7-1,2.8-1c0.5,0,1.1,0,1.6,0.2
	c0.4,0.1,0.8,0.3,1.2,0.5l-0.5,1.3c-0.3-0.2-0.6-0.3-0.9-0.4c-0.3-0.1-0.7-0.2-1.1-0.2c-0.5,0-1,0.1-1.3,0.5
	c-0.3,0.3-0.5,0.8-0.5,1.2c0,0.4,0.2,0.8,0.5,1.1c0.5,0.4,1.2,0.7,1.8,0.9c0.7,0.2,1.4,0.7,1.9,1.3c0.4,0.5,0.6,1.2,0.6,1.8
	c0,1-0.4,1.9-1.1,2.5C130.2,41.3,129.2,41.6,128.1,41.6z"/>
<path class="st0" d="M135.9,31c-0.3,0-0.6-0.1-0.9-0.3c-0.2-0.2-0.4-0.4-0.4-0.7c0-0.3,0.1-0.6,0.4-0.7c0.5-0.4,1.2-0.4,1.8,0
	c0.2,0.2,0.4,0.4,0.4,0.7c0,0.3-0.1,0.5-0.4,0.7C136.5,30.9,136.2,31,135.9,31z M134.8,41.4v-8.9h2.2v8.9H134.8z"/>
<path class="st0" d="M145.5,41.4v-6.3c0-0.4-0.1-0.8-0.4-1.1c-0.4-0.3-0.9-0.5-1.4-0.4c-0.3,0-0.6,0-0.9,0.1c-0.2,0-0.5,0.1-0.7,0.2
	v7.6h-2.2V33c0.5-0.2,1.1-0.4,1.7-0.5c0.7-0.1,1.5-0.2,2.2-0.2c1.1-0.1,2.1,0.2,3,0.8c0.6,0.5,1,1.2,0.9,2v6.3L145.5,41.4z"/>
<path class="st0" d="M154.2,45.1c-0.7,0-1.3,0-2-0.2c-0.5-0.1-1-0.2-1.4-0.5l0.6-1.3c0.3,0.2,0.7,0.3,1.1,0.4
	c0.4,0.1,0.9,0.2,1.3,0.2c0.6,0.1,1.3-0.1,1.7-0.5c0.4-0.4,0.6-0.9,0.5-1.5v-0.6c-0.6,0.3-1.2,0.4-1.9,0.3c-1.1,0-2.1-0.4-2.9-1.2
	c-0.8-0.9-1.2-2-1.1-3.2c-0.1-1.3,0.4-2.6,1.2-3.5c1-0.9,2.3-1.4,3.6-1.3c0.6,0,1.3,0.1,1.9,0.2c0.5,0.1,0.9,0.2,1.3,0.5v8.6
	c0.1,1-0.3,2-1.1,2.7C156.3,44.9,155.2,45.2,154.2,45.1z M156.1,33.7c-0.4-0.2-0.8-0.2-1.2-0.2c-0.7-0.1-1.5,0.3-1.9,0.9
	c-0.4,0.8-0.7,1.7-0.6,2.6c-0.1,0.9,0.1,1.7,0.6,2.5c0.4,0.6,1.1,0.9,1.8,0.8c0.4,0,0.9-0.1,1.3-0.3L156.1,33.7z"/>
<path class="st0" d="M164.9,41.6c-1,0.1-2-0.2-2.9-0.8c-0.7-0.6-1-1.4-0.9-2.2v-6.1h2.2v6.2c0,0.4,0.1,0.8,0.4,1.1
	c0.4,0.3,0.8,0.4,1.3,0.4c0.5,0,1-0.1,1.5-0.3v-7.4h2.2v8.4c-0.5,0.2-1.1,0.4-1.6,0.5C166.4,41.5,165.7,41.6,164.9,41.6z"/>
<path class="st0" d="M171.7,41.4v-13h2.2v13H171.7z"/>
<path class="st0" d="M180.4,41.6c-1,0.1-2.1-0.2-3-0.7c-0.7-0.4-1-1.2-1-2c0-1,0.5-1.9,1.5-2.3c1.3-0.6,2.7-0.9,4.1-1v-0.5
	c0-0.4-0.2-0.9-0.5-1.1c-0.4-0.2-1-0.4-1.5-0.3c-0.4,0-0.9,0-1.3,0.1c-0.4,0.1-0.8,0.2-1.2,0.4L177,33c0.5-0.2,1-0.4,1.5-0.5
	c0.6-0.1,1.3-0.2,1.9-0.2c0.9,0,1.9,0.2,2.7,0.7c0.7,0.6,1.1,1.5,1,2.4v5.5c-0.5,0.2-1,0.4-1.5,0.5
	C181.8,41.5,181.1,41.6,180.4,41.6z M181.9,36.6c-0.9,0.1-1.8,0.3-2.6,0.7c-0.6,0.3-0.9,1-0.8,1.6c0,0.5,0.2,0.9,0.5,1.2
	c0.5,0.3,1,0.4,1.5,0.4c0.5,0,0.9-0.1,1.4-0.2L181.9,36.6z"/>
<path class="st0" d="M191.2,33.8c-0.3-0.1-0.7-0.1-1-0.2c-0.4,0-0.7,0.1-1.1,0.2v7.5h-2.2V33c0.6-0.2,1.2-0.4,1.9-0.5
	c1-0.1,1.9-0.2,2.9-0.2L191.2,33.8z"/>
<path class="st0" d="M194.8,31c-0.3,0-0.6-0.1-0.9-0.3c-0.2-0.2-0.4-0.4-0.4-0.7c0-0.3,0.1-0.6,0.4-0.7c0.5-0.4,1.2-0.4,1.8,0
	c0.2,0.2,0.4,0.4,0.4,0.7c0,0.3-0.1,0.5-0.4,0.7C195.4,30.9,195.1,31,194.8,31z M193.7,41.4v-8.9h2.2v8.9H193.7z"/>
<path class="st0" d="M202.1,41.5c-0.8,0.1-1.5-0.2-2-0.7c-0.4-0.5-0.7-1.1-0.7-1.7v-5.3h-1.1v-1.3h1.1v-2l2.2-0.6v2.5h1.6v1.3h-1.6
	V39c0,0.8,0.4,1.2,1.1,1.2c0.2,0,0.4,0,0.5-0.1v1.3c-0.2,0.1-0.3,0.1-0.5,0.1C202.6,41.5,202.3,41.5,202.1,41.5z"/>
<path class="st0" d="M208.8,45h-2.4l1.6-3.5l-3.3-8.9h2.4l1.7,5.8c0.1,0.3,0.1,0.5,0.2,0.8c0,0.2,0,0.4,0,0.5c0-0.1,0.1-0.3,0.1-0.5
	c0-0.3,0.1-0.5,0.2-0.8l1.8-5.8h2.1L208.8,45z"/>
<path class="st0" d="M132.7,58.3l-1-2.9h-4.1l-1,2.9h-2.1l4.2-11.4h2.2l4.2,11.4H132.7z M130.1,50.1c-0.1-0.3-0.1-0.5-0.2-0.8
	c0-0.2-0.1-0.4-0.1-0.6c0,0.1-0.1,0.3-0.1,0.5s-0.1,0.5-0.3,0.9l-1.4,4h3.4L130.1,50.1z"/>
<path class="st0" d="M147,58.3h-2l-1.7-5.6c-0.1-0.2-0.1-0.4-0.1-0.6c0-0.2,0-0.4-0.1-0.5L143,52c0,0.2-0.1,0.5-0.2,0.7l-1.8,5.6h-2
	l-2.8-8.9h2.3l1.4,5.8c0.1,0.2,0.1,0.5,0.1,0.7c0,0.2,0,0.4,0,0.4l0.1-0.5l0.2-0.7l1.8-5.8h1.9l1.7,5.8c0.1,0.2,0.1,0.5,0.2,0.7
	c0,0.2,0,0.3,0.1,0.5l0.1-0.5c0-0.1,0.1-0.4,0.2-0.8l1.5-5.8h2L147,58.3z"/>
<path class="st0" d="M155.5,58.4c-1,0.1-2.1-0.2-3-0.7c-0.7-0.4-1-1.2-1-2c-0.1-1,0.5-1.9,1.4-2.4c1.3-0.6,2.7-0.9,4.1-1v-0.5
	c0-0.4-0.2-0.9-0.5-1.1c-0.4-0.2-1-0.4-1.5-0.3c-0.4,0-0.9,0-1.3,0.1c-0.4,0.1-0.8,0.2-1.2,0.4l-0.5-1.1c0.5-0.2,1-0.4,1.5-0.5
	c0.6-0.1,1.3-0.2,1.9-0.2c0.9,0,1.9,0.2,2.7,0.7c0.7,0.6,1.1,1.5,1,2.4v5.5c-0.5,0.2-1,0.4-1.5,0.5
	C156.9,58.4,156.2,58.4,155.5,58.4z M157,53.4c-0.9,0.1-1.8,0.3-2.6,0.7c-0.6,0.3-0.9,1-0.8,1.6c0,0.5,0.2,0.9,0.5,1.2
	c0.5,0.3,1,0.4,1.6,0.4c0.5,0,0.9-0.1,1.4-0.2V53.4z"/>
<path class="st0" d="M166.3,50.7c-0.3-0.1-0.7-0.1-1-0.2c-0.4,0-0.7,0.1-1.1,0.2v7.5H162v-8.4c0.6-0.2,1.2-0.4,1.9-0.5
	c1-0.1,1.9-0.2,2.9-0.2L166.3,50.7z"/>
<path class="st0" d="M172.9,58.4c-1.2,0.1-2.5-0.4-3.4-1.2c-0.8-0.9-1.3-2.1-1.2-3.3c-0.1-1.2,0.4-2.5,1.2-3.4
	c0.8-0.8,2-1.3,3.1-1.2c0.5,0,1,0,1.5,0.2v-4.2h2.2v12.5c-0.5,0.2-1,0.4-1.5,0.5C174.2,58.4,173.5,58.4,172.9,58.4z M174.1,50.5
	c-0.3-0.1-0.7-0.1-1-0.1c-0.8-0.1-1.5,0.3-2,0.9c-0.8,1.6-0.8,3.4,0,5c0.4,0.6,1.1,0.9,1.9,0.9c0.4,0,0.8,0,1.2-0.2L174.1,50.5z"/>
<path class="st0" d="M181.3,58.4c-0.5,0-1-0.1-1.5-0.2c-0.4-0.1-0.8-0.3-1.2-0.5l0.6-1.3c0.2,0.2,0.5,0.3,0.8,0.4
	c0.3,0.1,0.7,0.2,1.1,0.2c0.4,0,0.8-0.1,1.1-0.3c0.3-0.2,0.4-0.6,0.4-0.9c0-0.3-0.1-0.7-0.3-0.9c-0.4-0.3-0.9-0.5-1.4-0.7
	c-0.6-0.2-1.1-0.5-1.5-1c-0.3-0.4-0.5-0.9-0.5-1.4c0-0.7,0.3-1.4,0.9-1.8c0.6-0.5,1.4-0.8,2.3-0.8c0.5,0,1,0,1.4,0.2
	c0.4,0.1,0.8,0.3,1.1,0.5L184,51c-0.2-0.1-0.4-0.3-0.7-0.3c-0.3-0.1-0.6-0.2-0.9-0.2c-0.4,0-0.7,0.1-1,0.3c-0.2,0.2-0.4,0.5-0.4,0.8
	c0,0.3,0.1,0.6,0.4,0.8c0.4,0.3,0.9,0.5,1.4,0.7c0.6,0.2,1.1,0.5,1.5,1c0.3,0.4,0.5,1,0.5,1.5c0,0.8-0.4,1.5-1,1.9
	C183.1,58.2,182.2,58.5,181.3,58.4z"/>
<path class="st0" d="M97.7,11.9c-6.6-0.9-13.8-0.6-20.4,5L59,4.6L52.1,0v19.4c-2.3-2.1-5-3.7-7.9-4.9c-2.7-1.1-5.7-1.6-8.6-1.3
	c-4.7,0.5-8.7,3.7-10.3,8.1c-1.9,6.1,0.7,11.9,6.9,15.4c0.8,0.4,1.6,0.8,2.5,1.3c1.8,0.9,5.7,2.3,4.4,5.1c-0.9,1.9-3.8,2.5-5.6,2.6
	c-3.6,0.1-7.2-0.5-10.5-1.9c-0.8-0.3-1.7-0.7-2.6-1c1.2-3.2,1.9-6.5,1.8-9.9C22.2,14.7,6.7,8.8,0,7.5v9c1.2,0.3,14.5,3.2,14.5,16.5
	c0,2.2-0.4,4.5-1.2,6.5C8.4,36.9,4,33.7,0,29.9v10c2.6,2.8,5.1,4.2,7.8,6.1c-2.3,1.6-5,2.8-7.8,3.4v9c6-1.2,11.4-4.1,15.7-8.4
	c1.4,0.6,2.8,1.2,4.2,1.8c4.6,1.8,9.5,2.8,14.5,3c5.5,0,12-2.3,13.9-8c3-9.3-5.7-14.2-9.9-16.3c-0.8-0.4-1.5-0.7-2-1
	c-4-2.3-3.3-4.8-3-5.6c0.3-1,1.8-2,3.2-2.3c2.5-0.4,5-0.1,7.3,0.8c0.5,0.2,5.5,2.7,8.3,6.8v37.2H61v-50l11.6,7.8
	c-1.9,4.4-2.6,9.2-2,14c0.9,7.9,6.6,14.4,14.2,16.5c1.8,0.5,3.6,0.7,5.4,0.6c7.8-0.3,13.6-6.1,13.6-13.6c0-4.2-1.9-8.2-5.3-10.7
	c-0.5-0.5-1.9-1.4-13.6-9.2c1.8-1.9,6.5-2.4,8.6-2.2c9.3,0.9,17.7,6,22.7,13.9V20.8C111.2,16,104.7,12.8,97.7,11.9z M91.6,37.1
	c2.5,1.6,3.2,5,1.6,7.4c-1,1.5-2.7,2.5-4.5,2.4c-6,0.3-8.8-6.1-9.2-9.6c-0.3-2.7,0-5.4,0.8-7.9L91.6,37.1z"/>
</svg>
