<svg id="Icons" xmlns="http://www.w3.org/2000/svg" viewBox="0 0 76.21 76.21"><defs><style>.cls-1{fill:#b88b01;}.cls-2{fill:#fff;}</style></defs><title>speech</title><circle class="cls-1" cx="38.11" cy="38.11" r="38.11"/><path class="cls-2" d="M19.88,49.44c-.4-.07-.68-.11-1-.17a5.41,5.41,0,0,1-3-2.3,4.17,4.17,0,0,1-.53-4.5,4.27,4.27,0,0,1,3.94-2.57c1.78-.05,3.57,0,5.35,0h.71c0-.47,0-.86,0-1.25a37.85,37.85,0,0,1,.18-4.4C26,31.66,28.5,28.61,32,28.89c.36,0,.72,0,1.07,0a1.15,1.15,0,0,0-.4-.36,6.92,6.92,0,0,1-3.39-5.6,7,7,0,0,1,3.07-6.53,8,8,0,0,1,3.09-1.16h1.74c.46.1.94.17,1.38.31a7.18,7.18,0,0,1,3.18,11.51c-.62.66-1.37,1.21-2.06,1.82.5,0,1,0,1.53,0A6,6,0,0,1,46.66,32a6.91,6.91,0,0,1,1.06,3.77c0,1.34,0,2.68,0,4h7.84c0-1.63,0-3.2,0-4.78a6.42,6.42,0,0,0-2.92-5.51.69.69,0,0,0-.59,0,4.46,4.46,0,0,1-3,.26c-2.52-.63-3.65-2.79-2.93-5.41.63-2.28,2.62-3.15,4.94-2.8a4,4,0,0,1,3.22,4.3,1.32,1.32,0,0,0,.66,1.35,8.51,8.51,0,0,1,3.66,7.35c0,1.55,0,3.11,0,4.67,0,.22,0,.43,0,.67.72,0,1.36,0,2,0a8.1,8.1,0,0,1,2.24.36,4.59,4.59,0,0,1,2.93,3.64v1.24a9.86,9.86,0,0,1-.71,1.75A4.92,4.92,0,0,1,61,49.51m-.88,2.34H61c1,0,1.42.43,1.43,1.44,0,1.7-.05,3.4,0,5.1A1.41,1.41,0,0,1,60.83,60c-5,0-10,0-15,0H20c-1.1,0-1.49-.4-1.49-1.5q0-2.64,0-5.29c0-1,.47-1.46,1.49-1.46h.8m36.93-2.3H22.82m.89,2.39H57M40.27,46.38c6.43,0,12.86,0,19.29,0A2.74,2.74,0,0,0,62.24,45c.36-.63.33-1.17-.33-1.5A4.1,4.1,0,0,0,60.2,43c-3.42,0-6.84,0-10.27,0q-14.65,0-29.31,0a4.7,4.7,0,0,0-1.89.48c-.69.32-.73.82-.37,1.48A2.63,2.63,0,0,0,21,46.39C27.41,46.37,33.84,46.38,40.27,46.38ZM28.2,39.83H44.48a32.44,32.44,0,0,0-.23-4.47C43.81,33,42.38,32,39.95,32H32.49c-2.12,0-3.47.91-3.9,3A37.51,37.51,0,0,0,28.2,39.83ZM59.13,55H21.41v1.85H59.13ZM36.34,18.34a4.18,4.18,0,0,0-4,3.93,4.19,4.19,0,0,0,3.89,3.93,4.15,4.15,0,0,0,4-3.9A4.17,4.17,0,0,0,36.34,18.34Zm14.61,7.37a1.32,1.32,0,0,0-1-1.1,1.34,1.34,0,0,0-1,1,1.3,1.3,0,0,0,1.08,1A1.17,1.17,0,0,0,50.95,25.72Z" transform="translate(-1.89 -1.89)"/></svg>